<svg width="360" height="379" viewBox="0 0 360 379" fill="none" xmlns="http://www.w3.org/2000/svg">
<rect width="360" height="379" fill="white"/>
<g filter="url(#filter0_d_2_32)">
<rect x="20" y="30" width="320" height="320" rx="10" fill="#F5F5F5"/>
<g filter="url(#filter1_d_2_32)">
<rect x="133.92" y="280.24" width="92.16" height="35.84" rx="3.81277" fill="#5035FF"/>
</g>
<path d="M166.62 303V292.367H170.552C171.824 292.367 172.799 292.664 173.476 293.26C174.159 293.855 174.5 294.644 174.5 295.627C174.5 296.594 174.159 297.375 173.476 297.97C172.799 298.56 171.824 298.855 170.552 298.855H168.553V303H166.62ZM172.37 303L169.552 298.019H171.617L174.894 303H172.37ZM168.553 297.56H170.355C171.065 297.56 171.603 297.399 171.969 297.077C172.335 296.749 172.518 296.326 172.518 295.807C172.518 295.278 172.351 294.852 172.018 294.529C171.685 294.202 171.196 294.038 170.552 294.038H168.553V297.56ZM180.293 303.229C179.567 303.229 178.909 303.074 178.319 302.762C177.734 302.451 177.27 301.987 176.926 301.37C176.582 300.747 176.41 299.969 176.41 299.035C176.41 298.085 176.582 297.298 176.926 296.676C177.27 296.053 177.734 295.589 178.319 295.283C178.909 294.977 179.567 294.824 180.293 294.824C181.008 294.824 181.656 294.977 182.235 295.283C182.819 295.589 183.283 296.053 183.627 296.676C183.971 297.298 184.143 298.085 184.143 299.035C184.143 299.969 183.971 300.747 183.627 301.37C183.283 301.987 182.819 302.451 182.235 302.762C181.656 303.074 181.008 303.229 180.293 303.229ZM180.228 301.542C180.61 301.542 180.948 301.449 181.243 301.263C181.544 301.072 181.779 300.791 181.948 300.42C182.123 300.048 182.21 299.587 182.21 299.035C182.21 298.194 182.043 297.56 181.71 297.135C181.383 296.709 180.932 296.496 180.359 296.496C179.971 296.496 179.627 296.591 179.326 296.782C179.026 296.968 178.788 297.249 178.614 297.626C178.444 298.003 178.36 298.473 178.36 299.035C178.36 299.865 178.526 300.491 178.859 300.911C179.198 301.332 179.654 301.542 180.228 301.542ZM186.444 303V291.761H188.377V303H186.444ZM191.436 303V291.761H193.369V303H191.436Z" fill="white"/>
<path d="M137.883 73.2768V70.6656H151.195V73.2768H145.371L146.049 72.5856V87.28H143.028V72.5856L143.707 73.2768H137.883ZM155.45 87.6384C154.392 87.6384 153.424 87.3653 152.545 86.8192C151.666 86.2731 150.962 85.5093 150.433 84.528C149.904 83.5381 149.639 82.3819 149.639 81.0592C149.639 79.6939 149.899 78.5205 150.42 77.5392C150.949 76.5579 151.653 75.8069 152.532 75.2864C153.411 74.7659 154.384 74.5056 155.45 74.5056C156.44 74.5056 157.294 74.7061 158.01 75.1072C158.736 75.4997 159.316 76.0373 159.751 76.72C160.195 77.3941 160.494 78.1579 160.647 79.0112C160.801 79.8645 160.809 80.7435 160.673 81.648H152.046V80.0096H158.535L157.946 80.3936C157.972 79.9925 157.951 79.5872 157.882 79.1776C157.823 78.768 157.703 78.3925 157.524 78.0512C157.345 77.7099 157.089 77.4368 156.756 77.232C156.432 77.0187 156.014 76.912 155.502 76.912C154.887 76.912 154.367 77.0656 153.94 77.3728C153.513 77.68 153.189 78.0981 152.967 78.6272C152.745 79.1563 152.634 79.7536 152.634 80.4192V81.6224C152.634 82.3221 152.737 82.9408 152.942 83.4784C153.155 84.016 153.466 84.4384 153.876 84.7456C154.294 85.0528 154.819 85.2064 155.45 85.2064C156.039 85.2064 156.534 85.0699 156.935 84.7968C157.336 84.5237 157.592 84.1141 157.703 83.568H160.75C160.622 84.3701 160.319 85.0784 159.841 85.6928C159.371 86.2987 158.761 86.7765 158.01 87.1264C157.259 87.4677 156.406 87.6384 155.45 87.6384ZM172.149 87.28V80.0096C172.149 79.088 171.927 78.3925 171.483 77.9232C171.039 77.4539 170.459 77.2192 169.742 77.2192C169.136 77.2192 168.599 77.3856 168.129 77.7184C167.669 78.0512 167.306 78.5547 167.041 79.2288C166.777 79.8944 166.645 80.7264 166.645 81.7248H165.646C165.646 80.112 165.847 78.7723 166.248 77.7056C166.649 76.6304 167.216 75.8283 167.95 75.2992C168.684 74.7701 169.546 74.5056 170.536 74.5056C171.56 74.5056 172.413 74.736 173.096 75.1968C173.787 75.6491 174.303 76.2891 174.645 77.1168C174.994 77.9445 175.169 78.9088 175.169 80.0096V87.28H172.149ZM163.624 87.28V74.864H166.261L166.645 77.3216V87.28H163.624ZM177.884 87.28V84.8224L184.335 77.296H177.884V74.864H187.663V77.296L181.417 84.8224H187.663V87.28H177.884ZM192.479 72.5856C191.89 72.5856 191.43 72.432 191.097 72.1248C190.773 71.8091 190.61 71.3739 190.61 70.8192C190.61 70.2816 190.773 69.8549 191.097 69.5392C191.43 69.2149 191.89 69.0528 192.479 69.0528C193.059 69.0528 193.516 69.2149 193.849 69.5392C194.182 69.8549 194.348 70.2816 194.348 70.8192C194.348 71.3739 194.182 71.8091 193.849 72.1248C193.516 72.432 193.059 72.5856 192.479 72.5856ZM190.969 87.28V74.8128H193.99V87.28H190.969ZM202.978 87.6384C201.92 87.6384 200.952 87.3653 200.073 86.8192C199.194 86.2731 198.49 85.5093 197.961 84.528C197.432 83.5381 197.167 82.3819 197.167 81.0592C197.167 79.6939 197.427 78.5205 197.948 77.5392C198.477 76.5579 199.181 75.8069 200.06 75.2864C200.939 74.7659 201.912 74.5056 202.978 74.5056C203.968 74.5056 204.822 74.7061 205.538 75.1072C206.264 75.4997 206.844 76.0373 207.279 76.72C207.723 77.3941 208.022 78.1579 208.175 79.0112C208.329 79.8645 208.337 80.7435 208.201 81.648H199.574V80.0096H206.063L205.474 80.3936C205.5 79.9925 205.479 79.5872 205.41 79.1776C205.351 78.768 205.231 78.3925 205.052 78.0512C204.873 77.7099 204.617 77.4368 204.284 77.232C203.96 77.0187 203.542 76.912 203.03 76.912C202.415 76.912 201.895 77.0656 201.468 77.3728C201.041 77.68 200.717 78.0981 200.495 78.6272C200.273 79.1563 200.162 79.7536 200.162 80.4192V81.6224C200.162 82.3221 200.265 82.9408 200.47 83.4784C200.683 84.016 200.994 84.4384 201.404 84.7456C201.822 85.0528 202.347 85.2064 202.978 85.2064C203.567 85.2064 204.062 85.0699 204.463 84.7968C204.864 84.5237 205.12 84.1141 205.231 83.568H208.278C208.15 84.3701 207.847 85.0784 207.369 85.6928C206.899 86.2987 206.289 86.7765 205.538 87.1264C204.787 87.4677 203.934 87.6384 202.978 87.6384ZM215.785 87.6384C214.591 87.6384 213.562 87.4763 212.701 87.152C211.847 86.8192 211.19 86.3456 210.729 85.7312C210.269 85.1083 210.034 84.3616 210.025 83.4912H212.816C212.841 84.1056 213.085 84.5536 213.545 84.8352C214.006 85.1168 214.633 85.2576 215.427 85.2576C215.862 85.2576 216.246 85.1936 216.579 85.0656C216.92 84.9376 217.185 84.7627 217.373 84.5408C217.56 84.3189 217.654 84.0715 217.654 83.7984C217.654 83.4485 217.526 83.1755 217.27 82.9792C217.023 82.7744 216.622 82.5867 216.067 82.416L213.353 81.4432C212.381 81.0933 211.634 80.6325 211.113 80.0608C210.593 79.4891 210.333 78.8064 210.333 78.0128C210.333 76.9632 210.806 76.1184 211.753 75.4784C212.709 74.8299 213.985 74.5056 215.581 74.5056C217.168 74.5056 218.392 74.8555 219.254 75.5552C220.125 76.2464 220.573 77.1253 220.598 78.192H217.757C217.714 77.7824 217.518 77.4581 217.168 77.2192C216.818 76.9803 216.289 76.8608 215.581 76.8608C214.941 76.8608 214.437 76.9931 214.07 77.2576C213.712 77.5136 213.533 77.8165 213.533 78.1664C213.533 78.7552 214.036 79.1989 215.043 79.4976L217.987 80.5984C218.943 80.9227 219.685 81.3408 220.214 81.8528C220.743 82.3648 221.008 83.0133 221.008 83.7984C221.008 84.4555 220.786 85.0784 220.342 85.6672C219.907 86.2475 219.297 86.7211 218.512 87.088C217.727 87.4549 216.818 87.6384 215.785 87.6384Z" fill="#2B283A"/>
<path d="M78.1916 106.32V96.7875H81.4126C82.1573 96.7875 82.7686 96.9147 83.2465 97.1692C83.7243 97.4205 84.0781 97.7665 84.3077 98.2071C84.5373 98.6478 84.6521 99.1489 84.6521 99.7105C84.6521 100.272 84.5373 100.77 84.3077 101.205C84.0781 101.639 83.7259 101.98 83.2511 102.229C82.7764 102.474 82.1697 102.596 81.4312 102.596H78.8247V101.554H81.394C81.9029 101.554 82.3125 101.479 82.6228 101.33C82.9362 101.181 83.1627 100.97 83.3023 100.697C83.4451 100.421 83.5164 100.092 83.5164 99.7105C83.5164 99.3289 83.4451 98.9953 83.3023 98.7098C83.1596 98.4243 82.9315 98.204 82.6181 98.0489C82.3047 97.8906 81.8904 97.8115 81.3753 97.8115H79.346V106.32H78.1916ZM82.6786 102.038L85.0245 106.32H83.684L81.3753 102.038H82.6786ZM88.8611 106.469C88.2157 106.469 87.6494 106.315 87.1622 106.008C86.6781 105.701 86.2996 105.271 86.0265 104.719C85.7565 104.166 85.6215 103.521 85.6215 102.783C85.6215 102.038 85.7565 101.388 86.0265 100.832C86.2996 100.277 86.6781 99.8455 87.1622 99.5383C87.6494 99.2311 88.2157 99.0775 88.8611 99.0775C89.5065 99.0775 90.0713 99.2311 90.5554 99.5383C91.0425 99.8455 91.4211 100.277 91.6911 100.832C91.9641 101.388 92.1007 102.038 92.1007 102.783C92.1007 103.521 91.9641 104.166 91.6911 104.719C91.4211 105.271 91.0425 105.701 90.5554 106.008C90.0713 106.315 89.5065 106.469 88.8611 106.469ZM88.8611 105.482C89.3514 105.482 89.7548 105.357 90.0713 105.105C90.3878 104.854 90.6221 104.523 90.7741 104.114C90.9262 103.704 91.0022 103.26 91.0022 102.783C91.0022 102.305 90.9262 101.859 90.7741 101.447C90.6221 101.034 90.3878 100.7 90.0713 100.446C89.7548 100.192 89.3514 100.064 88.8611 100.064C88.3708 100.064 87.9674 100.192 87.6509 100.446C87.3344 100.7 87.1001 101.034 86.9481 101.447C86.796 101.859 86.72 102.305 86.72 102.783C86.72 103.26 86.796 103.704 86.9481 104.114C87.1001 104.523 87.3344 104.854 87.6509 105.105C87.9674 105.357 88.3708 105.482 88.8611 105.482ZM94.4827 96.7875V106.32H93.3843V96.7875H94.4827ZM97.1999 96.7875V106.32H96.1014V96.7875H97.1999ZM106.617 103.397V99.1706H107.716V106.32H106.617V105.11H106.543C106.375 105.473 106.115 105.782 105.761 106.036C105.407 106.287 104.96 106.413 104.42 106.413C103.974 106.413 103.576 106.315 103.229 106.12C102.881 105.921 102.608 105.623 102.41 105.226C102.211 104.826 102.112 104.322 102.112 103.713V99.1706H103.21V103.639C103.21 104.16 103.356 104.576 103.648 104.886C103.943 105.197 104.318 105.352 104.774 105.352C105.047 105.352 105.325 105.282 105.607 105.142C105.893 105.003 106.132 104.789 106.324 104.5C106.52 104.211 106.617 103.844 106.617 103.397ZM110.433 102.019V106.32H109.335V99.1706H110.396V100.288H110.489C110.656 99.9247 110.911 99.633 111.252 99.4127C111.594 99.1892 112.034 99.0775 112.574 99.0775C113.058 99.0775 113.482 99.1768 113.845 99.3754C114.208 99.5709 114.49 99.8688 114.692 100.269C114.894 100.666 114.995 101.169 114.995 101.777V106.32H113.896V101.852C113.896 101.29 113.75 100.852 113.459 100.539C113.167 100.223 112.767 100.064 112.258 100.064C111.907 100.064 111.594 100.14 111.317 100.292C111.044 100.444 110.829 100.666 110.67 100.958C110.512 101.25 110.433 101.603 110.433 102.019ZM119.718 99.1706V100.102H116.013V99.1706H119.718ZM117.093 97.4577H118.191V104.272C118.191 104.582 118.236 104.815 118.326 104.97C118.419 105.122 118.537 105.225 118.68 105.277C118.826 105.327 118.979 105.352 119.141 105.352C119.262 105.352 119.361 105.346 119.439 105.333C119.516 105.318 119.578 105.305 119.625 105.296L119.848 106.283C119.774 106.311 119.67 106.339 119.536 106.367C119.403 106.398 119.234 106.413 119.029 106.413C118.719 106.413 118.415 106.346 118.117 106.213C117.822 106.08 117.577 105.876 117.381 105.603C117.189 105.33 117.093 104.986 117.093 104.57V97.4577ZM120.977 106.32V99.1706H122.075V106.32H120.977ZM121.536 97.9791C121.321 97.9791 121.137 97.9061 120.982 97.7603C120.83 97.6144 120.754 97.4391 120.754 97.2343C120.754 97.0295 120.83 96.8542 120.982 96.7084C121.137 96.5625 121.321 96.4896 121.536 96.4896C121.75 96.4896 121.933 96.5625 122.085 96.7084C122.24 96.8542 122.317 97.0295 122.317 97.2343C122.317 97.4391 122.24 97.6144 122.085 97.7603C121.933 97.9061 121.75 97.9791 121.536 97.9791ZM124.793 96.7875V106.32H123.694V96.7875H124.793ZM131.808 106.488C131.355 106.488 130.944 106.402 130.575 106.232C130.206 106.058 129.912 105.808 129.695 105.482C129.478 105.153 129.369 104.756 129.369 104.291C129.369 103.881 129.45 103.549 129.611 103.295C129.773 103.037 129.988 102.835 130.258 102.689C130.528 102.544 130.826 102.435 131.152 102.364C131.481 102.289 131.811 102.23 132.143 102.187C132.578 102.131 132.93 102.089 133.2 102.061C133.473 102.03 133.672 101.979 133.796 101.907C133.923 101.836 133.987 101.712 133.987 101.535V101.498C133.987 101.039 133.861 100.682 133.61 100.427C133.361 100.173 132.984 100.046 132.479 100.046C131.954 100.046 131.543 100.16 131.245 100.39C130.947 100.62 130.738 100.865 130.617 101.126L129.574 100.753C129.76 100.319 130.009 99.9805 130.319 99.7385C130.632 99.4933 130.974 99.3227 131.343 99.2265C131.715 99.1272 132.081 99.0775 132.441 99.0775C132.671 99.0775 132.935 99.1055 133.233 99.1613C133.534 99.2141 133.824 99.3242 134.103 99.4918C134.385 99.6593 134.62 99.9122 134.806 100.25C134.992 100.589 135.085 101.042 135.085 101.61V106.32H133.987V105.352H133.931C133.856 105.507 133.732 105.673 133.558 105.85C133.385 106.027 133.154 106.177 132.865 106.301C132.576 106.426 132.224 106.488 131.808 106.488ZM131.976 105.501C132.41 105.501 132.777 105.415 133.074 105.245C133.375 105.074 133.602 104.854 133.754 104.584C133.909 104.314 133.987 104.03 133.987 103.732V102.727C133.94 102.783 133.838 102.834 133.679 102.88C133.524 102.924 133.344 102.963 133.14 102.997C132.938 103.028 132.741 103.056 132.548 103.08C132.359 103.102 132.206 103.121 132.088 103.136C131.802 103.174 131.535 103.234 131.287 103.318C131.042 103.398 130.843 103.521 130.691 103.686C130.542 103.847 130.468 104.067 130.468 104.346C130.468 104.728 130.609 105.017 130.891 105.212C131.177 105.405 131.538 105.501 131.976 105.501ZM137.795 96.7875V106.32H136.697V96.7875H137.795ZM140.513 96.7875V106.32H139.414V96.7875H140.513ZM148.124 106.469C147.528 106.469 147.002 106.318 146.546 106.017C146.09 105.713 145.733 105.285 145.476 104.733C145.218 104.177 145.089 103.521 145.089 102.764C145.089 102.013 145.218 101.361 145.476 100.809C145.733 100.257 146.092 99.83 146.551 99.529C147.01 99.228 147.541 99.0775 148.143 99.0775C148.608 99.0775 148.976 99.1551 149.246 99.3103C149.519 99.4623 149.727 99.6361 149.87 99.8316C150.015 100.024 150.129 100.182 150.209 100.306H150.302V96.7875H151.401V106.32H150.34V105.222H150.209C150.129 105.352 150.014 105.516 149.865 105.715C149.716 105.91 149.503 106.086 149.227 106.241C148.951 106.393 148.583 106.469 148.124 106.469ZM148.273 105.482C148.714 105.482 149.086 105.367 149.39 105.138C149.694 104.905 149.925 104.584 150.084 104.174C150.242 103.762 150.321 103.285 150.321 102.745C150.321 102.212 150.243 101.745 150.088 101.344C149.933 100.941 149.704 100.627 149.399 100.404C149.095 100.178 148.72 100.064 148.273 100.064C147.808 100.064 147.42 100.184 147.109 100.423C146.802 100.659 146.571 100.98 146.416 101.386C146.264 101.79 146.188 102.243 146.188 102.745C146.188 103.254 146.265 103.717 146.421 104.132C146.579 104.545 146.812 104.874 147.119 105.119C147.429 105.361 147.814 105.482 148.273 105.482ZM153.172 106.32V99.1706H154.271V106.32H153.172ZM153.731 97.9791C153.516 97.9791 153.332 97.9061 153.177 97.7603C153.025 97.6144 152.949 97.4391 152.949 97.2343C152.949 97.0295 153.025 96.8542 153.177 96.7084C153.332 96.5625 153.516 96.4896 153.731 96.4896C153.945 96.4896 154.128 96.5625 154.28 96.7084C154.435 96.8542 154.513 97.0295 154.513 97.2343C154.513 97.4391 154.435 97.6144 154.28 97.7603C154.128 97.9061 153.945 97.9791 153.731 97.9791ZM158.794 106.469C158.123 106.469 157.546 106.311 157.062 105.994C156.578 105.678 156.206 105.242 155.945 104.686C155.684 104.131 155.554 103.496 155.554 102.783C155.554 102.056 155.688 101.416 155.954 100.86C156.224 100.302 156.6 99.8657 157.081 99.5523C157.565 99.2358 158.13 99.0775 158.775 99.0775C159.278 99.0775 159.731 99.1706 160.134 99.3568C160.538 99.543 160.868 99.8036 161.126 100.139C161.383 100.474 161.543 100.865 161.605 101.312H160.507C160.423 100.986 160.237 100.697 159.948 100.446C159.663 100.192 159.278 100.064 158.794 100.064C158.365 100.064 157.99 100.176 157.667 100.399C157.348 100.62 157.098 100.932 156.918 101.335C156.741 101.735 156.653 102.205 156.653 102.745C156.653 103.298 156.739 103.779 156.913 104.188C157.09 104.598 157.338 104.916 157.658 105.142C157.981 105.369 158.359 105.482 158.794 105.482C159.079 105.482 159.338 105.433 159.571 105.333C159.804 105.234 160.001 105.091 160.162 104.905C160.323 104.719 160.438 104.495 160.507 104.235H161.605C161.543 104.657 161.389 105.037 161.144 105.375C160.902 105.71 160.581 105.977 160.181 106.176C159.784 106.371 159.321 106.469 158.794 106.469ZM165.815 106.469C165.126 106.469 164.532 106.317 164.032 106.013C163.536 105.706 163.153 105.277 162.883 104.728C162.616 104.176 162.482 103.533 162.482 102.801C162.482 102.069 162.616 101.423 162.883 100.865C163.153 100.303 163.528 99.8657 164.009 99.5523C164.493 99.2358 165.058 99.0775 165.703 99.0775C166.076 99.0775 166.443 99.1396 166.807 99.2637C167.17 99.3878 167.5 99.5895 167.798 99.8688C168.096 100.145 168.333 100.511 168.51 100.967C168.687 101.423 168.775 101.985 168.775 102.652V103.118H163.264V102.168H167.658C167.658 101.765 167.578 101.405 167.416 101.088C167.258 100.772 167.032 100.522 166.737 100.339C166.445 100.156 166.101 100.064 165.703 100.064C165.266 100.064 164.887 100.173 164.568 100.39C164.251 100.604 164.008 100.883 163.837 101.228C163.666 101.572 163.581 101.942 163.581 102.336V102.969C163.581 103.509 163.674 103.966 163.86 104.342C164.05 104.714 164.312 104.998 164.647 105.194C164.982 105.386 165.371 105.482 165.815 105.482C166.104 105.482 166.364 105.442 166.597 105.361C166.833 105.277 167.036 105.153 167.207 104.989C167.378 104.821 167.509 104.613 167.602 104.365L168.664 104.663C168.552 105.023 168.364 105.339 168.101 105.613C167.837 105.882 167.511 106.093 167.123 106.246C166.735 106.394 166.299 106.469 165.815 106.469ZM175.45 106.488C174.997 106.488 174.586 106.402 174.217 106.232C173.848 106.058 173.554 105.808 173.337 105.482C173.12 105.153 173.011 104.756 173.011 104.291C173.011 103.881 173.092 103.549 173.253 103.295C173.415 103.037 173.63 102.835 173.9 102.689C174.17 102.544 174.468 102.435 174.794 102.364C175.123 102.289 175.453 102.23 175.785 102.187C176.22 102.131 176.572 102.089 176.842 102.061C177.115 102.03 177.314 101.979 177.438 101.907C177.565 101.836 177.629 101.712 177.629 101.535V101.498C177.629 101.039 177.503 100.682 177.252 100.427C177.003 100.173 176.626 100.046 176.12 100.046C175.596 100.046 175.185 100.16 174.887 100.39C174.589 100.62 174.38 100.865 174.259 101.126L173.216 100.753C173.402 100.319 173.65 99.9805 173.961 99.7385C174.274 99.4933 174.616 99.3227 174.985 99.2265C175.357 99.1272 175.723 99.0775 176.083 99.0775C176.313 99.0775 176.577 99.1055 176.875 99.1613C177.176 99.2141 177.466 99.3242 177.745 99.4918C178.027 99.6593 178.262 99.9122 178.448 100.25C178.634 100.589 178.727 101.042 178.727 101.61V106.32H177.629V105.352H177.573C177.498 105.507 177.374 105.673 177.2 105.85C177.027 106.027 176.795 106.177 176.507 106.301C176.218 106.426 175.866 106.488 175.45 106.488ZM175.618 105.501C176.052 105.501 176.418 105.415 176.716 105.245C177.017 105.074 177.244 104.854 177.396 104.584C177.551 104.314 177.629 104.03 177.629 103.732V102.727C177.582 102.783 177.48 102.834 177.321 102.88C177.166 102.924 176.986 102.963 176.781 102.997C176.58 103.028 176.383 103.056 176.19 103.08C176.001 103.102 175.847 103.121 175.729 103.136C175.444 103.174 175.177 103.234 174.929 103.318C174.684 103.398 174.485 103.521 174.333 103.686C174.184 103.847 174.11 104.067 174.11 104.346C174.11 104.728 174.251 105.017 174.533 105.212C174.819 105.405 175.18 105.501 175.618 105.501ZM180.339 106.32V99.1706H181.4V100.25H181.474C181.605 99.8967 181.841 99.6097 182.182 99.3894C182.523 99.1691 182.908 99.0589 183.336 99.0589C183.417 99.0589 183.518 99.0605 183.639 99.0636C183.76 99.0667 183.851 99.0713 183.913 99.0775V100.195C183.876 100.185 183.791 100.171 183.657 100.153C183.527 100.131 183.389 100.12 183.243 100.12C182.896 100.12 182.585 100.193 182.312 100.339C182.042 100.482 181.828 100.68 181.67 100.935C181.515 101.186 181.437 101.473 181.437 101.796V106.32H180.339ZM187.602 106.469C186.913 106.469 186.319 106.317 185.82 106.013C185.323 105.706 184.94 105.277 184.67 104.728C184.403 104.176 184.27 103.533 184.27 102.801C184.27 102.069 184.403 101.423 184.67 100.865C184.94 100.303 185.315 99.8657 185.796 99.5523C186.28 99.2358 186.845 99.0775 187.491 99.0775C187.863 99.0775 188.231 99.1396 188.594 99.2637C188.957 99.3878 189.287 99.5895 189.585 99.8688C189.883 100.145 190.12 100.511 190.297 100.967C190.474 101.423 190.563 101.985 190.563 102.652V103.118H185.052V102.168H189.445C189.445 101.765 189.365 101.405 189.203 101.088C189.045 100.772 188.819 100.522 188.524 100.339C188.232 100.156 187.888 100.064 187.491 100.064C187.053 100.064 186.674 100.173 186.355 100.39C186.038 100.604 185.795 100.883 185.624 101.228C185.453 101.572 185.368 101.942 185.368 102.336V102.969C185.368 103.509 185.461 103.966 185.647 104.342C185.837 104.714 186.099 104.998 186.434 105.194C186.769 105.386 187.159 105.482 187.602 105.482C187.891 105.482 188.151 105.442 188.384 105.361C188.62 105.277 188.823 105.153 188.994 104.989C189.165 104.821 189.297 104.613 189.39 104.365L190.451 104.663C190.339 105.023 190.151 105.339 189.888 105.613C189.624 105.882 189.298 106.093 188.91 106.246C188.522 106.394 188.086 106.469 187.602 106.469ZM198.243 99.1706V100.102H194.538V99.1706H198.243ZM195.618 97.4577H196.716V104.272C196.716 104.582 196.761 104.815 196.851 104.97C196.944 105.122 197.062 105.225 197.205 105.277C197.351 105.327 197.504 105.352 197.666 105.352C197.787 105.352 197.886 105.346 197.963 105.333C198.041 105.318 198.103 105.305 198.15 105.296L198.373 106.283C198.299 106.311 198.195 106.339 198.061 106.367C197.928 106.398 197.759 106.413 197.554 106.413C197.244 106.413 196.939 106.346 196.642 106.213C196.347 106.08 196.102 105.876 195.906 105.603C195.714 105.33 195.618 104.986 195.618 104.57V97.4577ZM200.754 102.019V106.32H199.655V96.7875H200.754V100.288H200.847C201.015 99.9184 201.266 99.6252 201.601 99.408C201.939 99.1877 202.389 99.0775 202.951 99.0775C203.438 99.0775 203.865 99.1753 204.231 99.3708C204.597 99.5632 204.881 99.8595 205.083 100.26C205.287 100.657 205.39 101.163 205.39 101.777V106.32H204.291V101.852C204.291 101.284 204.144 100.845 203.849 100.534C203.558 100.221 203.153 100.064 202.634 100.064C202.274 100.064 201.952 100.14 201.666 100.292C201.384 100.444 201.16 100.666 200.996 100.958C200.835 101.25 200.754 101.603 200.754 102.019ZM210.004 106.469C209.315 106.469 208.721 106.317 208.221 106.013C207.725 105.706 207.341 105.277 207.071 104.728C206.805 104.176 206.671 103.533 206.671 102.801C206.671 102.069 206.805 101.423 207.071 100.865C207.341 100.303 207.717 99.8657 208.198 99.5523C208.682 99.2358 209.247 99.0775 209.892 99.0775C210.264 99.0775 210.632 99.1396 210.995 99.2637C211.358 99.3878 211.689 99.5895 211.987 99.8688C212.285 100.145 212.522 100.511 212.699 100.967C212.876 101.423 212.964 101.985 212.964 102.652V103.118H207.453V102.168H211.847C211.847 101.765 211.766 101.405 211.605 101.088C211.447 100.772 211.22 100.522 210.925 100.339C210.634 100.156 210.289 100.064 209.892 100.064C209.455 100.064 209.076 100.173 208.756 100.39C208.44 100.604 208.196 100.883 208.026 101.228C207.855 101.572 207.77 101.942 207.77 102.336V102.969C207.77 103.509 207.863 103.966 208.049 104.342C208.238 104.714 208.5 104.998 208.836 105.194C209.171 105.386 209.56 105.482 210.004 105.482C210.292 105.482 210.553 105.442 210.786 105.361C211.022 105.277 211.225 105.153 211.396 104.989C211.566 104.821 211.698 104.613 211.791 104.365L212.852 104.663C212.741 105.023 212.553 105.339 212.289 105.613C212.025 105.882 211.7 106.093 211.312 106.246C210.924 106.394 210.488 106.469 210.004 106.469ZM222.599 100.772L221.612 101.051C221.55 100.887 221.459 100.727 221.338 100.572C221.22 100.413 221.059 100.283 220.854 100.181C220.649 100.078 220.387 100.027 220.067 100.027C219.63 100.027 219.265 100.128 218.973 100.33C218.685 100.528 218.54 100.781 218.54 101.088C218.54 101.361 218.64 101.577 218.838 101.735C219.037 101.894 219.347 102.025 219.769 102.131L220.83 102.392C221.47 102.547 221.946 102.784 222.259 103.104C222.573 103.42 222.73 103.828 222.73 104.328C222.73 104.737 222.612 105.104 222.376 105.426C222.143 105.749 221.817 106.003 221.398 106.19C220.979 106.376 220.492 106.469 219.937 106.469C219.208 106.469 218.604 106.311 218.126 105.994C217.648 105.678 217.346 105.215 217.219 104.607L218.261 104.346C218.36 104.731 218.548 105.02 218.824 105.212C219.104 105.405 219.468 105.501 219.918 105.501C220.43 105.501 220.837 105.392 221.138 105.175C221.442 104.955 221.594 104.691 221.594 104.384C221.594 104.135 221.507 103.928 221.333 103.76C221.159 103.589 220.893 103.462 220.533 103.378L219.341 103.099C218.686 102.944 218.205 102.703 217.898 102.378C217.594 102.049 217.442 101.638 217.442 101.144C217.442 100.741 217.555 100.384 217.782 100.074C218.011 99.7633 218.323 99.5197 218.717 99.3428C219.114 99.166 219.564 99.0775 220.067 99.0775C220.775 99.0775 221.33 99.2327 221.733 99.543C222.14 99.8533 222.429 100.263 222.599 100.772ZM226.094 106.488C225.641 106.488 225.229 106.402 224.86 106.232C224.491 106.058 224.198 105.808 223.981 105.482C223.763 105.153 223.655 104.756 223.655 104.291C223.655 103.881 223.735 103.549 223.897 103.295C224.058 103.037 224.274 102.835 224.544 102.689C224.814 102.544 225.112 102.435 225.437 102.364C225.766 102.289 226.097 102.23 226.429 102.187C226.863 102.131 227.215 102.089 227.485 102.061C227.758 102.03 227.957 101.979 228.081 101.907C228.208 101.836 228.272 101.712 228.272 101.535V101.498C228.272 101.039 228.146 100.682 227.895 100.427C227.647 100.173 227.27 100.046 226.764 100.046C226.24 100.046 225.828 100.16 225.53 100.39C225.233 100.62 225.023 100.865 224.902 101.126L223.859 100.753C224.046 100.319 224.294 99.9805 224.604 99.7385C224.918 99.4933 225.259 99.3227 225.628 99.2265C226.001 99.1272 226.367 99.0775 226.727 99.0775C226.956 99.0775 227.22 99.1055 227.518 99.1613C227.819 99.2141 228.109 99.3242 228.388 99.4918C228.671 99.6593 228.905 99.9122 229.091 100.25C229.277 100.589 229.37 101.042 229.37 101.61V106.32H228.272V105.352H228.216C228.142 105.507 228.018 105.673 227.844 105.85C227.67 106.027 227.439 106.177 227.15 106.301C226.862 106.426 226.509 106.488 226.094 106.488ZM226.261 105.501C226.696 105.501 227.062 105.415 227.36 105.245C227.661 105.074 227.887 104.854 228.039 104.584C228.194 104.314 228.272 104.03 228.272 103.732V102.727C228.225 102.783 228.123 102.834 227.965 102.88C227.81 102.924 227.63 102.963 227.425 102.997C227.223 103.028 227.026 103.056 226.834 103.08C226.644 103.102 226.491 103.121 226.373 103.136C226.087 103.174 225.821 103.234 225.572 103.318C225.327 103.398 225.129 103.521 224.977 103.686C224.828 103.847 224.753 104.067 224.753 104.346C224.753 104.728 224.894 105.017 225.177 105.212C225.462 105.405 225.824 105.501 226.261 105.501ZM230.982 106.32V99.1706H232.043V100.288H232.137C232.285 99.906 232.526 99.6097 232.858 99.3987C233.19 99.1846 233.589 99.0775 234.054 99.0775C234.526 99.0775 234.918 99.1846 235.232 99.3987C235.548 99.6097 235.795 99.906 235.972 100.288H236.046C236.229 99.9184 236.504 99.6252 236.87 99.408C237.236 99.1877 237.675 99.0775 238.187 99.0775C238.827 99.0775 239.35 99.2777 239.756 99.678C240.163 100.075 240.366 100.694 240.366 101.535V106.32H239.267V101.535C239.267 101.008 239.123 100.631 238.834 100.404C238.546 100.178 238.206 100.064 237.815 100.064C237.312 100.064 236.923 100.216 236.647 100.52C236.371 100.821 236.233 101.203 236.233 101.665V106.32H235.115V101.423C235.115 101.017 234.984 100.69 234.72 100.441C234.456 100.19 234.116 100.064 233.7 100.064C233.415 100.064 233.148 100.14 232.9 100.292C232.655 100.444 232.456 100.655 232.304 100.925C232.155 101.192 232.081 101.501 232.081 101.852V106.32H230.982ZM244.979 106.469C244.29 106.469 243.695 106.317 243.196 106.013C242.699 105.706 242.316 105.277 242.046 104.728C241.779 104.176 241.646 103.533 241.646 102.801C241.646 102.069 241.779 101.423 242.046 100.865C242.316 100.303 242.692 99.8657 243.173 99.5523C243.657 99.2358 244.221 99.0775 244.867 99.0775C245.239 99.0775 245.607 99.1396 245.97 99.2637C246.333 99.3878 246.663 99.5895 246.961 99.8688C247.259 100.145 247.497 100.511 247.673 100.967C247.85 101.423 247.939 101.985 247.939 102.652V103.118H242.428V102.168H246.822C246.822 101.765 246.741 101.405 246.58 101.088C246.421 100.772 246.195 100.522 245.9 100.339C245.608 100.156 245.264 100.064 244.867 100.064C244.429 100.064 244.051 100.173 243.731 100.39C243.415 100.604 243.171 100.883 243 101.228C242.83 101.572 242.744 101.942 242.744 102.336V102.969C242.744 103.509 242.837 103.966 243.024 104.342C243.213 104.714 243.475 104.998 243.81 105.194C244.145 105.386 244.535 105.482 244.979 105.482C245.267 105.482 245.528 105.442 245.76 105.361C245.996 105.277 246.2 105.153 246.37 104.989C246.541 104.821 246.673 104.613 246.766 104.365L247.827 104.663C247.715 105.023 247.528 105.339 247.264 105.613C247 105.882 246.674 106.093 246.286 106.246C245.899 106.394 245.463 106.469 244.979 106.469ZM250.017 106.394C249.788 106.394 249.59 106.312 249.426 106.148C249.262 105.983 249.179 105.786 249.179 105.557C249.179 105.327 249.262 105.13 249.426 104.966C249.59 104.801 249.788 104.719 250.017 104.719C250.247 104.719 250.444 104.801 250.608 104.966C250.773 105.13 250.855 105.327 250.855 105.557C250.855 105.709 250.816 105.848 250.739 105.976C250.664 106.103 250.563 106.205 250.436 106.283C250.312 106.357 250.172 106.394 250.017 106.394ZM263.546 99.7664H262.391C262.323 99.4344 262.204 99.1427 262.033 98.8913C261.865 98.64 261.661 98.429 261.419 98.2583C261.18 98.0846 260.914 97.9542 260.623 97.8673C260.331 97.7805 260.027 97.737 259.71 97.737C259.133 97.737 258.61 97.8829 258.142 98.1745C257.676 98.4662 257.306 98.896 257.029 99.4639C256.756 100.032 256.62 100.728 256.62 101.554C256.62 102.379 256.756 103.076 257.029 103.644C257.306 104.211 257.676 104.641 258.142 104.933C258.61 105.225 259.133 105.37 259.71 105.37C260.027 105.37 260.331 105.327 260.623 105.24C260.914 105.153 261.18 105.024 261.419 104.854C261.661 104.68 261.865 104.467 262.033 104.216C262.204 103.962 262.323 103.67 262.391 103.341H263.546C263.459 103.828 263.301 104.264 263.071 104.649C262.841 105.034 262.556 105.361 262.215 105.631C261.873 105.898 261.49 106.101 261.065 106.241C260.643 106.381 260.191 106.45 259.71 106.45C258.897 106.45 258.174 106.252 257.541 105.855C256.908 105.457 256.41 104.893 256.047 104.16C255.684 103.428 255.503 102.559 255.503 101.554C255.503 100.548 255.684 99.6795 256.047 98.9472C256.41 98.2149 256.908 97.6501 257.541 97.2529C258.174 96.8558 258.897 96.6572 259.71 96.6572C260.191 96.6572 260.643 96.727 261.065 96.8666C261.49 97.0063 261.873 97.2111 262.215 97.481C262.556 97.7479 262.841 98.0737 263.071 98.4585C263.301 98.8401 263.459 99.2761 263.546 99.7664ZM265.967 96.7875V106.32H264.869V96.7875H265.967ZM267.586 106.32V99.1706H268.685V106.32H267.586ZM268.145 97.9791C267.931 97.9791 267.746 97.9061 267.591 97.7603C267.439 97.6144 267.363 97.4391 267.363 97.2343C267.363 97.0295 267.439 96.8542 267.591 96.7084C267.746 96.5625 267.931 96.4896 268.145 96.4896C268.359 96.4896 268.542 96.5625 268.694 96.7084C268.849 96.8542 268.927 97.0295 268.927 97.2343C268.927 97.4391 268.849 97.6144 268.694 97.7603C268.542 97.9061 268.359 97.9791 268.145 97.9791ZM273.208 106.469C272.537 106.469 271.96 106.311 271.476 105.994C270.992 105.678 270.62 105.242 270.359 104.686C270.099 104.131 269.968 103.496 269.968 102.783C269.968 102.056 270.102 101.416 270.368 100.86C270.638 100.302 271.014 99.8657 271.495 99.5523C271.979 99.2358 272.544 99.0775 273.189 99.0775C273.692 99.0775 274.145 99.1706 274.548 99.3568C274.952 99.543 275.282 99.8036 275.54 100.139C275.797 100.474 275.957 100.865 276.019 101.312H274.921C274.837 100.986 274.651 100.697 274.362 100.446C274.077 100.192 273.692 100.064 273.208 100.064C272.78 100.064 272.404 100.176 272.081 100.399C271.762 100.62 271.512 100.932 271.332 101.335C271.155 101.735 271.067 102.205 271.067 102.745C271.067 103.298 271.154 103.779 271.327 104.188C271.504 104.598 271.752 104.916 272.072 105.142C272.395 105.369 272.773 105.482 273.208 105.482C273.493 105.482 273.752 105.433 273.985 105.333C274.218 105.234 274.415 105.091 274.576 104.905C274.738 104.719 274.852 104.495 274.921 104.235H276.019C275.957 104.657 275.803 105.037 275.558 105.375C275.316 105.71 274.995 105.977 274.595 106.176C274.198 106.371 273.735 106.469 273.208 106.469ZM278.256 103.713L278.237 102.354H278.46L281.588 99.1706H282.947L279.615 102.541H279.522L278.256 103.713ZM277.232 106.32V96.7875H278.33V106.32H277.232ZM281.775 106.32L278.982 102.783L279.764 102.019L283.171 106.32H281.775ZM71.2236 122.469C70.5348 122.469 69.9405 122.317 69.441 122.013C68.9445 121.706 68.5612 121.277 68.2913 120.728C68.0244 120.176 67.891 119.533 67.891 118.801C67.891 118.069 68.0244 117.423 68.2913 116.865C68.5612 116.303 68.9367 115.866 69.4177 115.552C69.9018 115.236 70.4665 115.078 71.1119 115.078C71.4843 115.078 71.852 115.14 72.2151 115.264C72.5781 115.388 72.9086 115.59 73.2065 115.869C73.5044 116.145 73.7418 116.511 73.9186 116.967C74.0955 117.423 74.1839 117.985 74.1839 118.652V119.118H68.673V118.168H73.0668C73.0668 117.765 72.9862 117.405 72.8248 117.088C72.6666 116.772 72.44 116.522 72.1452 116.339C71.8536 116.156 71.5091 116.064 71.1119 116.064C70.6744 116.064 70.2958 116.173 69.9762 116.39C69.6597 116.604 69.4161 116.883 69.2455 117.228C69.0748 117.572 68.9895 117.942 68.9895 118.336V118.969C68.9895 119.509 69.0826 119.966 69.2687 120.342C69.458 120.714 69.7202 120.998 70.0554 121.194C70.3905 121.386 70.7799 121.482 71.2236 121.482C71.5122 121.482 71.7729 121.442 72.0056 121.361C72.2414 121.277 72.4447 121.153 72.6154 120.989C72.786 120.821 72.9179 120.613 73.011 120.365L74.0722 120.663C73.9605 121.023 73.7728 121.339 73.509 121.613C73.2453 121.882 72.9194 122.093 72.5316 122.246C72.1437 122.394 71.7077 122.469 71.2236 122.469ZM77.5656 122.488C77.1125 122.488 76.7014 122.402 76.3321 122.232C75.9628 122.058 75.6696 121.808 75.4524 121.482C75.2352 121.153 75.1266 120.756 75.1266 120.291C75.1266 119.881 75.2073 119.549 75.3686 119.295C75.53 119.037 75.7456 118.835 76.0156 118.689C76.2856 118.544 76.5834 118.435 76.9093 118.364C77.2382 118.289 77.5687 118.23 77.9007 118.187C78.3351 118.131 78.6873 118.089 78.9573 118.061C79.2303 118.03 79.4289 117.979 79.553 117.907C79.6803 117.836 79.7439 117.712 79.7439 117.535V117.498C79.7439 117.039 79.6182 116.682 79.3669 116.427C79.1186 116.173 78.7416 116.046 78.2358 116.046C77.7114 116.046 77.3002 116.16 77.0024 116.39C76.7045 116.62 76.495 116.865 76.374 117.126L75.3314 116.753C75.5176 116.319 75.7658 115.981 76.0761 115.738C76.3895 115.493 76.7308 115.323 77.1001 115.226C77.4725 115.127 77.8386 115.078 78.1986 115.078C78.4282 115.078 78.692 115.105 78.9898 115.161C79.2908 115.214 79.581 115.324 79.8602 115.492C80.1426 115.659 80.3769 115.912 80.5631 116.25C80.7493 116.589 80.8424 117.042 80.8424 117.61V122.32H79.7439V121.352H79.688C79.6136 121.507 79.4894 121.673 79.3157 121.85C79.1419 122.027 78.9107 122.177 78.6221 122.301C78.3336 122.426 77.9814 122.488 77.5656 122.488ZM77.7331 121.501C78.1675 121.501 78.5337 121.415 78.8316 121.245C79.1326 121.074 79.3591 120.854 79.5112 120.584C79.6663 120.314 79.7439 120.03 79.7439 119.732V118.727C79.6973 118.783 79.5949 118.834 79.4367 118.88C79.2815 118.924 79.1016 118.963 78.8968 118.997C78.6951 119.028 78.498 119.056 78.3056 119.08C78.1163 119.102 77.9627 119.121 77.8448 119.136C77.5593 119.174 77.2925 119.234 77.0442 119.318C76.7991 119.398 76.6005 119.521 76.4485 119.686C76.2995 119.847 76.225 120.067 76.225 120.346C76.225 120.728 76.3662 121.017 76.6486 121.212C76.9341 121.405 77.2956 121.501 77.7331 121.501ZM85.3585 122.469C84.6883 122.469 84.1111 122.311 83.627 121.994C83.143 121.678 82.7706 121.242 82.5099 120.686C82.2493 120.131 82.119 119.496 82.119 118.783C82.119 118.056 82.2524 117.416 82.5192 116.86C82.7892 116.302 83.1647 115.866 83.6456 115.552C84.1297 115.236 84.6945 115.078 85.3399 115.078C85.8426 115.078 86.2956 115.171 86.699 115.357C87.1024 115.543 87.4329 115.804 87.6904 116.139C87.948 116.474 88.1078 116.865 88.1699 117.312H87.0714C86.9876 116.986 86.8014 116.697 86.5128 116.446C86.2274 116.192 85.8426 116.064 85.3585 116.064C84.9303 116.064 84.5548 116.176 84.2321 116.399C83.9125 116.62 83.6627 116.932 83.4827 117.335C83.3059 117.735 83.2174 118.205 83.2174 118.745C83.2174 119.298 83.3043 119.779 83.4781 120.188C83.655 120.598 83.9032 120.916 84.2228 121.142C84.5455 121.369 84.9241 121.482 85.3585 121.482C85.644 121.482 85.9031 121.433 86.1358 121.333C86.3686 121.234 86.5656 121.091 86.727 120.905C86.8883 120.719 87.0031 120.495 87.0714 120.235H88.1699C88.1078 120.657 87.9542 121.037 87.7091 121.375C87.467 121.71 87.1459 121.977 86.7456 122.176C86.3484 122.371 85.886 122.469 85.3585 122.469ZM90.4809 118.019V122.32H89.3825V112.787H90.4809V116.288H90.574C90.7416 115.918 90.9929 115.625 91.3281 115.408C91.6663 115.188 92.1162 115.078 92.6779 115.078C93.1651 115.078 93.5917 115.175 93.9579 115.371C94.324 115.563 94.608 115.859 94.8097 116.26C95.0145 116.657 95.1169 117.163 95.1169 117.777V122.32H94.0184V117.852C94.0184 117.284 93.871 116.845 93.5762 116.534C93.2845 116.221 92.8796 116.064 92.3614 116.064C92.0014 116.064 91.6787 116.14 91.3932 116.292C91.1109 116.444 90.8874 116.666 90.723 116.958C90.5616 117.25 90.4809 117.603 90.4809 118.019ZM102.726 122.469C102.13 122.469 101.604 122.318 101.148 122.017C100.692 121.713 100.335 121.285 100.078 120.733C99.8201 120.177 99.6913 119.521 99.6913 118.764C99.6913 118.013 99.8201 117.361 100.078 116.809C100.335 116.257 100.694 115.83 101.153 115.529C101.612 115.228 102.143 115.078 102.745 115.078C103.21 115.078 103.578 115.155 103.848 115.31C104.121 115.462 104.329 115.636 104.472 115.832C104.617 116.024 104.731 116.182 104.811 116.306H104.904V112.787H106.003V122.32H104.942V121.222H104.811C104.731 121.352 104.616 121.516 104.467 121.715C104.318 121.91 104.105 122.086 103.829 122.241C103.553 122.393 103.185 122.469 102.726 122.469ZM102.875 121.482C103.316 121.482 103.688 121.367 103.992 121.138C104.296 120.905 104.527 120.584 104.686 120.174C104.844 119.762 104.923 119.285 104.923 118.745C104.923 118.212 104.845 117.745 104.69 117.344C104.535 116.941 104.306 116.627 104.001 116.404C103.697 116.178 103.322 116.064 102.875 116.064C102.41 116.064 102.022 116.184 101.711 116.423C101.404 116.659 101.173 116.98 101.018 117.386C100.866 117.79 100.79 118.243 100.79 118.745C100.79 119.254 100.867 119.717 101.023 120.132C101.181 120.545 101.413 120.874 101.721 121.119C102.031 121.361 102.416 121.482 102.875 121.482ZM107.774 122.32V115.171H108.872V122.32H107.774ZM108.333 113.979C108.118 113.979 107.934 113.906 107.779 113.76C107.627 113.614 107.551 113.439 107.551 113.234C107.551 113.03 107.627 112.854 107.779 112.708C107.934 112.563 108.118 112.49 108.333 112.49C108.547 112.49 108.73 112.563 108.882 112.708C109.037 112.854 109.115 113.03 109.115 113.234C109.115 113.439 109.037 113.614 108.882 113.76C108.73 113.906 108.547 113.979 108.333 113.979ZM113.489 122.469C112.8 122.469 112.206 122.317 111.706 122.013C111.21 121.706 110.826 121.277 110.556 120.728C110.29 120.176 110.156 119.533 110.156 118.801C110.156 118.069 110.29 117.423 110.556 116.865C110.826 116.303 111.202 115.866 111.683 115.552C112.167 115.236 112.732 115.078 113.377 115.078C113.749 115.078 114.117 115.14 114.48 115.264C114.843 115.388 115.174 115.59 115.472 115.869C115.769 116.145 116.007 116.511 116.184 116.967C116.361 117.423 116.449 117.985 116.449 118.652V119.118H110.938V118.168H115.332C115.332 117.765 115.251 117.405 115.09 117.088C114.932 116.772 114.705 116.522 114.41 116.339C114.119 116.156 113.774 116.064 113.377 116.064C112.939 116.064 112.561 116.173 112.241 116.39C111.925 116.604 111.681 116.883 111.511 117.228C111.34 117.572 111.255 117.942 111.255 118.336V118.969C111.255 119.509 111.348 119.966 111.534 120.342C111.723 120.714 111.985 120.998 112.32 121.194C112.656 121.386 113.045 121.482 113.489 121.482C113.777 121.482 114.038 121.442 114.271 121.361C114.507 121.277 114.71 121.153 114.88 120.989C115.051 120.821 115.183 120.613 115.276 120.365L116.337 120.663C116.226 121.023 116.038 121.339 115.774 121.613C115.51 121.882 115.185 122.093 114.797 122.246C114.409 122.394 113.973 122.469 113.489 122.469ZM124.129 115.171V116.102H120.424V115.171H124.129ZM121.504 113.458H122.603V120.272C122.603 120.582 122.648 120.815 122.737 120.97C122.831 121.122 122.949 121.225 123.091 121.277C123.237 121.327 123.391 121.352 123.552 121.352C123.673 121.352 123.772 121.346 123.85 121.333C123.928 121.318 123.99 121.305 124.036 121.296L124.26 122.283C124.185 122.311 124.081 122.339 123.948 122.367C123.814 122.398 123.645 122.413 123.44 122.413C123.13 122.413 122.826 122.346 122.528 122.213C122.233 122.08 121.988 121.876 121.793 121.603C121.6 121.33 121.504 120.986 121.504 120.57V113.458ZM128.216 122.469C127.571 122.469 127.004 122.315 126.517 122.008C126.033 121.701 125.654 121.271 125.381 120.719C125.111 120.166 124.976 119.521 124.976 118.783C124.976 118.038 125.111 117.388 125.381 116.832C125.654 116.277 126.033 115.846 126.517 115.538C127.004 115.231 127.571 115.078 128.216 115.078C128.861 115.078 129.426 115.231 129.91 115.538C130.397 115.846 130.776 116.277 131.046 116.832C131.319 117.388 131.456 118.038 131.456 118.783C131.456 119.521 131.319 120.166 131.046 120.719C130.776 121.271 130.397 121.701 129.91 122.008C129.426 122.315 128.861 122.469 128.216 122.469ZM128.216 121.482C128.706 121.482 129.11 121.357 129.426 121.105C129.743 120.854 129.977 120.523 130.129 120.114C130.281 119.704 130.357 119.26 130.357 118.783C130.357 118.305 130.281 117.859 130.129 117.447C129.977 117.034 129.743 116.7 129.426 116.446C129.11 116.192 128.706 116.064 128.216 116.064C127.726 116.064 127.322 116.192 127.006 116.446C126.689 116.7 126.455 117.034 126.303 117.447C126.151 117.859 126.075 118.305 126.075 118.783C126.075 119.26 126.151 119.704 126.303 120.114C126.455 120.523 126.689 120.854 127.006 121.105C127.322 121.357 127.726 121.482 128.216 121.482ZM139.216 115.171V116.102H135.362V115.171H139.216ZM136.516 122.32V114.184C136.516 113.774 136.613 113.433 136.805 113.16C136.997 112.887 137.247 112.682 137.554 112.545C137.862 112.409 138.186 112.341 138.527 112.341C138.797 112.341 139.017 112.362 139.188 112.406C139.359 112.449 139.486 112.49 139.57 112.527L139.253 113.476C139.197 113.458 139.12 113.434 139.021 113.407C138.924 113.379 138.797 113.365 138.639 113.365C138.276 113.365 138.014 113.456 137.852 113.639C137.694 113.822 137.615 114.091 137.615 114.445V122.32H136.516ZM140.362 122.32V115.171H141.424V116.25H141.498C141.628 115.897 141.864 115.61 142.206 115.389C142.547 115.169 142.932 115.059 143.36 115.059C143.441 115.059 143.541 115.06 143.662 115.064C143.783 115.067 143.875 115.071 143.937 115.078V116.195C143.9 116.185 143.814 116.171 143.681 116.153C143.551 116.131 143.413 116.12 143.267 116.12C142.919 116.12 142.609 116.193 142.336 116.339C142.066 116.482 141.852 116.68 141.694 116.935C141.538 117.186 141.461 117.473 141.461 117.796V122.32H140.362ZM147.626 122.469C146.937 122.469 146.343 122.317 145.843 122.013C145.347 121.706 144.963 121.277 144.693 120.728C144.427 120.176 144.293 119.533 144.293 118.801C144.293 118.069 144.427 117.423 144.693 116.865C144.963 116.303 145.339 115.866 145.82 115.552C146.304 115.236 146.869 115.078 147.514 115.078C147.886 115.078 148.254 115.14 148.617 115.264C148.98 115.388 149.311 115.59 149.609 115.869C149.907 116.145 150.144 116.511 150.321 116.967C150.498 117.423 150.586 117.985 150.586 118.652V119.118H145.075V118.168H149.469C149.469 117.765 149.388 117.405 149.227 117.088C149.069 116.772 148.842 116.522 148.547 116.339C148.256 116.156 147.911 116.064 147.514 116.064C147.077 116.064 146.698 116.173 146.378 116.39C146.062 116.604 145.818 116.883 145.648 117.228C145.477 117.572 145.392 117.942 145.392 118.336V118.969C145.392 119.509 145.485 119.966 145.671 120.342C145.86 120.714 146.122 120.998 146.458 121.194C146.793 121.386 147.182 121.482 147.626 121.482C147.914 121.482 148.175 121.442 148.408 121.361C148.644 121.277 148.847 121.153 149.018 120.989C149.188 120.821 149.32 120.613 149.413 120.365L150.474 120.663C150.363 121.023 150.175 121.339 149.911 121.613C149.647 121.882 149.322 122.093 148.934 122.246C148.546 122.394 148.11 122.469 147.626 122.469ZM154.861 122.469C154.173 122.469 153.578 122.317 153.079 122.013C152.582 121.706 152.199 121.277 151.929 120.728C151.662 120.176 151.529 119.533 151.529 118.801C151.529 118.069 151.662 117.423 151.929 116.865C152.199 116.303 152.574 115.866 153.055 115.552C153.54 115.236 154.104 115.078 154.75 115.078C155.122 115.078 155.49 115.14 155.853 115.264C156.216 115.388 156.546 115.59 156.844 115.869C157.142 116.145 157.38 116.511 157.556 116.967C157.733 117.423 157.822 117.985 157.822 118.652V119.118H152.311V118.168H156.705C156.705 117.765 156.624 117.405 156.463 117.088C156.304 116.772 156.078 116.522 155.783 116.339C155.491 116.156 155.147 116.064 154.75 116.064C154.312 116.064 153.934 116.173 153.614 116.39C153.297 116.604 153.054 116.883 152.883 117.228C152.713 117.572 152.627 117.942 152.627 118.336V118.969C152.627 119.509 152.72 119.966 152.906 120.342C153.096 120.714 153.358 120.998 153.693 121.194C154.028 121.386 154.418 121.482 154.861 121.482C155.15 121.482 155.411 121.442 155.643 121.361C155.879 121.277 156.082 121.153 156.253 120.989C156.424 120.821 156.556 120.613 156.649 120.365L157.71 120.663C157.598 121.023 157.411 121.339 157.147 121.613C156.883 121.882 156.557 122.093 156.169 122.246C155.781 122.394 155.345 122.469 154.861 122.469ZM158.895 122.32V121.482L162.953 116.269V116.195H159.025V115.171H164.368V116.046L160.421 121.222V121.296H164.499V122.32H158.895ZM168.59 122.469C167.901 122.469 167.307 122.317 166.807 122.013C166.311 121.706 165.928 121.277 165.658 120.728C165.391 120.176 165.258 119.533 165.258 118.801C165.258 118.069 165.391 117.423 165.658 116.865C165.928 116.303 166.303 115.866 166.784 115.552C167.268 115.236 167.833 115.078 168.478 115.078C168.851 115.078 169.219 115.14 169.582 115.264C169.945 115.388 170.275 115.59 170.573 115.869C170.871 116.145 171.108 116.511 171.285 116.967C171.462 117.423 171.55 117.985 171.55 118.652V119.118H166.039V118.168H170.433C170.433 117.765 170.353 117.405 170.191 117.088C170.033 116.772 169.807 116.522 169.512 116.339C169.22 116.156 168.876 116.064 168.478 116.064C168.041 116.064 167.662 116.173 167.343 116.39C167.026 116.604 166.783 116.883 166.612 117.228C166.441 117.572 166.356 117.942 166.356 118.336V118.969C166.356 119.509 166.449 119.966 166.635 120.342C166.825 120.714 167.087 120.998 167.422 121.194C167.757 121.386 168.146 121.482 168.59 121.482C168.879 121.482 169.139 121.442 169.372 121.361C169.608 121.277 169.811 121.153 169.982 120.989C170.153 120.821 170.284 120.613 170.378 120.365L171.439 120.663C171.327 121.023 171.139 121.339 170.876 121.613C170.612 121.882 170.286 122.093 169.898 122.246C169.51 122.394 169.074 122.469 168.59 122.469ZM176.121 122.32V115.171H177.22V122.32H176.121ZM176.68 113.979C176.466 113.979 176.281 113.906 176.126 113.76C175.974 113.614 175.898 113.439 175.898 113.234C175.898 113.03 175.974 112.854 176.126 112.708C176.281 112.563 176.466 112.49 176.68 112.49C176.894 112.49 177.077 112.563 177.229 112.708C177.384 112.854 177.462 113.03 177.462 113.234C177.462 113.439 177.384 113.614 177.229 113.76C177.077 113.906 176.894 113.979 176.68 113.979ZM181.948 115.171V116.102H178.243V115.171H181.948ZM179.323 113.458H180.421V120.272C180.421 120.582 180.466 120.815 180.556 120.97C180.649 121.122 180.767 121.225 180.91 121.277C181.056 121.327 181.209 121.352 181.371 121.352C181.492 121.352 181.591 121.346 181.669 121.333C181.746 121.318 181.808 121.305 181.855 121.296L182.078 122.283C182.004 122.311 181.9 122.339 181.766 122.367C181.633 122.398 181.464 122.413 181.259 122.413C180.949 122.413 180.645 122.346 180.347 122.213C180.052 122.08 179.807 121.876 179.611 121.603C179.419 121.33 179.323 120.986 179.323 120.57V113.458ZM188.604 122.488C188.151 122.488 187.74 122.402 187.371 122.232C187.001 122.058 186.708 121.808 186.491 121.482C186.274 121.153 186.165 120.756 186.165 120.291C186.165 119.881 186.246 119.549 186.407 119.295C186.568 119.037 186.784 118.835 187.054 118.689C187.324 118.544 187.622 118.435 187.948 118.364C188.277 118.289 188.607 118.23 188.939 118.187C189.374 118.131 189.726 118.089 189.996 118.061C190.269 118.03 190.467 117.979 190.592 117.907C190.719 117.836 190.782 117.712 190.782 117.535V117.498C190.782 117.039 190.657 116.682 190.405 116.427C190.157 116.173 189.78 116.046 189.274 116.046C188.75 116.046 188.339 116.16 188.041 116.39C187.743 116.62 187.533 116.865 187.412 117.126L186.37 116.753C186.556 116.319 186.804 115.981 187.115 115.738C187.428 115.493 187.769 115.323 188.139 115.226C188.511 115.127 188.877 115.078 189.237 115.078C189.467 115.078 189.73 115.105 190.028 115.161C190.329 115.214 190.619 115.324 190.899 115.492C191.181 115.659 191.415 115.912 191.602 116.25C191.788 116.589 191.881 117.042 191.881 117.61V122.32H190.782V121.352H190.726C190.652 121.507 190.528 121.673 190.354 121.85C190.18 122.027 189.949 122.177 189.661 122.301C189.372 122.426 189.02 122.488 188.604 122.488ZM188.772 121.501C189.206 121.501 189.572 121.415 189.87 121.245C190.171 121.074 190.398 120.854 190.55 120.584C190.705 120.314 190.782 120.03 190.782 119.732V118.727C190.736 118.783 190.633 118.834 190.475 118.88C190.32 118.924 190.14 118.963 189.935 118.997C189.734 119.028 189.536 119.056 189.344 119.08C189.155 119.102 189.001 119.121 188.883 119.136C188.598 119.174 188.331 119.234 188.083 119.318C187.838 119.398 187.639 119.521 187.487 119.686C187.338 119.847 187.264 120.067 187.264 120.346C187.264 120.728 187.405 121.017 187.687 121.212C187.973 121.405 188.334 121.501 188.772 121.501ZM196.602 115.171V116.102H192.897V115.171H196.602ZM193.977 113.458H195.075V120.272C195.075 120.582 195.12 120.815 195.21 120.97C195.303 121.122 195.421 121.225 195.564 121.277C195.71 121.327 195.863 121.352 196.025 121.352C196.146 121.352 196.245 121.346 196.323 121.333C196.4 121.318 196.462 121.305 196.509 121.296L196.732 122.283C196.658 122.311 196.554 122.339 196.42 122.367C196.287 122.398 196.118 122.413 195.913 122.413C195.603 122.413 195.299 122.346 195.001 122.213C194.706 122.08 194.461 121.876 194.265 121.603C194.073 121.33 193.977 120.986 193.977 120.57V113.458ZM201.154 122.32V115.171H202.253V122.32H201.154ZM201.713 113.979C201.499 113.979 201.314 113.906 201.159 113.76C201.007 113.614 200.931 113.439 200.931 113.234C200.931 113.03 201.007 112.854 201.159 112.708C201.314 112.563 201.499 112.49 201.713 112.49C201.927 112.49 202.11 112.563 202.262 112.708C202.417 112.854 202.495 113.03 202.495 113.234C202.495 113.439 202.417 113.614 202.262 113.76C202.11 113.906 201.927 113.979 201.713 113.979ZM206.981 115.171V116.102H203.276V115.171H206.981ZM204.355 113.458H205.454V120.272C205.454 120.582 205.499 120.815 205.589 120.97C205.682 121.122 205.8 121.225 205.943 121.277C206.088 121.327 206.242 121.352 206.403 121.352C206.524 121.352 206.624 121.346 206.701 121.333C206.779 121.318 206.841 121.305 206.887 121.296L207.111 122.283C207.036 122.311 206.932 122.339 206.799 122.367C206.666 122.398 206.496 122.413 206.292 122.413C205.981 122.413 205.677 122.346 205.379 122.213C205.085 122.08 204.839 121.876 204.644 121.603C204.452 121.33 204.355 120.986 204.355 120.57V113.458ZM213.176 116.772L212.189 117.051C212.127 116.887 212.035 116.727 211.914 116.572C211.797 116.413 211.635 116.283 211.43 116.181C211.226 116.078 210.963 116.027 210.644 116.027C210.206 116.027 209.842 116.128 209.55 116.33C209.261 116.528 209.117 116.781 209.117 117.088C209.117 117.361 209.216 117.577 209.415 117.735C209.614 117.894 209.924 118.025 210.346 118.131L211.407 118.392C212.046 118.547 212.523 118.784 212.836 119.104C213.149 119.42 213.306 119.828 213.306 120.328C213.306 120.737 213.188 121.104 212.952 121.426C212.72 121.749 212.394 122.003 211.975 122.19C211.556 122.376 211.069 122.469 210.513 122.469C209.784 122.469 209.181 122.311 208.703 121.994C208.225 121.678 207.922 121.215 207.795 120.607L208.838 120.346C208.937 120.731 209.125 121.02 209.401 121.212C209.68 121.405 210.045 121.501 210.495 121.501C211.007 121.501 211.413 121.392 211.714 121.175C212.018 120.955 212.17 120.691 212.17 120.384C212.17 120.135 212.084 119.928 211.91 119.76C211.736 119.589 211.469 119.462 211.109 119.378L209.918 119.099C209.263 118.944 208.782 118.703 208.475 118.378C208.171 118.049 208.019 117.638 208.019 117.144C208.019 116.741 208.132 116.384 208.358 116.074C208.588 115.763 208.9 115.52 209.294 115.343C209.691 115.166 210.141 115.078 210.644 115.078C211.351 115.078 211.907 115.233 212.31 115.543C212.717 115.853 213.005 116.263 213.176 116.772ZM220.764 122.469C220.094 122.469 219.517 122.311 219.033 121.994C218.549 121.678 218.176 121.242 217.915 120.686C217.655 120.131 217.525 119.496 217.525 118.783C217.525 118.056 217.658 117.416 217.925 116.86C218.195 116.302 218.57 115.866 219.051 115.552C219.535 115.236 220.1 115.078 220.745 115.078C221.248 115.078 221.701 115.171 222.105 115.357C222.508 115.543 222.838 115.804 223.096 116.139C223.354 116.474 223.513 116.865 223.575 117.312H222.477C222.393 116.986 222.207 116.697 221.918 116.446C221.633 116.192 221.248 116.064 220.764 116.064C220.336 116.064 219.96 116.176 219.638 116.399C219.318 116.62 219.068 116.932 218.888 117.335C218.711 117.735 218.623 118.205 218.623 118.745C218.623 119.298 218.71 119.779 218.884 120.188C219.061 120.598 219.309 120.916 219.628 121.142C219.951 121.369 220.33 121.482 220.764 121.482C221.05 121.482 221.309 121.433 221.541 121.333C221.774 121.234 221.971 121.091 222.133 120.905C222.294 120.719 222.409 120.495 222.477 120.235H223.575C223.513 120.657 223.36 121.037 223.115 121.375C222.873 121.71 222.551 121.977 222.151 122.176C221.754 122.371 221.292 122.469 220.764 122.469ZM229.294 119.397V115.171H230.392V122.32H229.294V121.11H229.219C229.052 121.473 228.791 121.782 228.437 122.036C228.083 122.287 227.637 122.413 227.097 122.413C226.65 122.413 226.253 122.315 225.905 122.12C225.558 121.921 225.285 121.623 225.086 121.226C224.887 120.826 224.788 120.322 224.788 119.713V115.171H225.887V119.639C225.887 120.16 226.032 120.576 226.324 120.886C226.619 121.197 226.994 121.352 227.45 121.352C227.724 121.352 228.001 121.282 228.284 121.142C228.569 121.003 228.808 120.789 229 120.5C229.196 120.211 229.294 119.844 229.294 119.397ZM232.011 122.32V115.171H233.072V116.25H233.147C233.277 115.897 233.513 115.61 233.854 115.389C234.195 115.169 234.58 115.059 235.008 115.059C235.089 115.059 235.19 115.06 235.311 115.064C235.432 115.067 235.523 115.071 235.586 115.078V116.195C235.548 116.185 235.463 116.171 235.33 116.153C235.199 116.131 235.061 116.12 234.915 116.12C234.568 116.12 234.257 116.193 233.984 116.339C233.714 116.482 233.5 116.68 233.342 116.935C233.187 117.186 233.109 117.473 233.109 117.796V122.32H232.011ZM236.494 122.32V115.171H237.556V116.25H237.63C237.76 115.897 237.996 115.61 238.338 115.389C238.679 115.169 239.064 115.059 239.492 115.059C239.573 115.059 239.673 115.06 239.794 115.064C239.915 115.067 240.007 115.071 240.069 115.078V116.195C240.032 116.185 239.947 116.171 239.813 116.153C239.683 116.131 239.545 116.12 239.399 116.12C239.051 116.12 238.741 116.193 238.468 116.339C238.198 116.482 237.984 116.68 237.826 116.935C237.67 117.186 237.593 117.473 237.593 117.796V122.32H236.494ZM243.758 122.469C243.069 122.469 242.475 122.317 241.975 122.013C241.479 121.706 241.096 121.277 240.826 120.728C240.559 120.176 240.425 119.533 240.425 118.801C240.425 118.069 240.559 117.423 240.826 116.865C241.096 116.303 241.471 115.866 241.952 115.552C242.436 115.236 243.001 115.078 243.646 115.078C244.019 115.078 244.386 115.14 244.749 115.264C245.112 115.388 245.443 115.59 245.741 115.869C246.039 116.145 246.276 116.511 246.453 116.967C246.63 117.423 246.718 117.985 246.718 118.652V119.118H241.207V118.168H245.601C245.601 117.765 245.52 117.405 245.359 117.088C245.201 116.772 244.974 116.522 244.68 116.339C244.388 116.156 244.043 116.064 243.646 116.064C243.209 116.064 242.83 116.173 242.511 116.39C242.194 116.604 241.95 116.883 241.78 117.228C241.609 117.572 241.524 117.942 241.524 118.336V118.969C241.524 119.509 241.617 119.966 241.803 120.342C241.992 120.714 242.255 120.998 242.59 121.194C242.925 121.386 243.314 121.482 243.758 121.482C244.047 121.482 244.307 121.442 244.54 121.361C244.776 121.277 244.979 121.153 245.15 120.989C245.32 120.821 245.452 120.613 245.545 120.365L246.607 120.663C246.495 121.023 246.307 121.339 246.043 121.613C245.78 121.882 245.454 122.093 245.066 122.246C244.678 122.394 244.242 122.469 243.758 122.469ZM249.094 118.019V122.32H247.996V115.171H249.057V116.288H249.15C249.318 115.925 249.572 115.633 249.914 115.413C250.255 115.189 250.696 115.078 251.236 115.078C251.72 115.078 252.143 115.177 252.506 115.375C252.869 115.571 253.152 115.869 253.353 116.269C253.555 116.666 253.656 117.169 253.656 117.777V122.32H252.557V117.852C252.557 117.29 252.412 116.852 252.12 116.539C251.828 116.223 251.428 116.064 250.919 116.064C250.568 116.064 250.255 116.14 249.979 116.292C249.706 116.444 249.49 116.666 249.332 116.958C249.174 117.25 249.094 117.603 249.094 118.019ZM258.379 115.171V116.102H254.674V115.171H258.379ZM255.754 113.458H256.852V120.272C256.852 120.582 256.897 120.815 256.987 120.97C257.081 121.122 257.198 121.225 257.341 121.277C257.487 121.327 257.641 121.352 257.802 121.352C257.923 121.352 258.022 121.346 258.1 121.333C258.177 121.318 258.24 121.305 258.286 121.296L258.51 122.283C258.435 122.311 258.331 122.339 258.198 122.367C258.064 122.398 257.895 122.413 257.69 122.413C257.38 122.413 257.076 122.346 256.778 122.213C256.483 122.08 256.238 121.876 256.043 121.603C255.85 121.33 255.754 120.986 255.754 120.57V113.458ZM268.778 115.171L266.134 122.32H265.017L262.373 115.171H263.565L265.538 120.868H265.613L267.586 115.171H268.778ZM271.721 122.488C271.268 122.488 270.856 122.402 270.487 122.232C270.118 122.058 269.825 121.808 269.607 121.482C269.39 121.153 269.282 120.756 269.282 120.291C269.282 119.881 269.362 119.549 269.524 119.295C269.685 119.037 269.901 118.835 270.171 118.689C270.441 118.544 270.738 118.435 271.064 118.364C271.393 118.289 271.724 118.23 272.056 118.187C272.49 118.131 272.842 118.089 273.112 118.061C273.385 118.03 273.584 117.979 273.708 117.907C273.835 117.836 273.899 117.712 273.899 117.535V117.498C273.899 117.039 273.773 116.682 273.522 116.427C273.274 116.173 272.897 116.046 272.391 116.046C271.866 116.046 271.455 116.16 271.157 116.39C270.859 116.62 270.65 116.865 270.529 117.126L269.486 116.753C269.673 116.319 269.921 115.981 270.231 115.738C270.545 115.493 270.886 115.323 271.255 115.226C271.627 115.127 271.994 115.078 272.354 115.078C272.583 115.078 272.847 115.105 273.145 115.161C273.446 115.214 273.736 115.324 274.015 115.492C274.298 115.659 274.532 115.912 274.718 116.25C274.904 116.589 274.997 117.042 274.997 117.61V122.32H273.899V121.352H273.843C273.769 121.507 273.644 121.673 273.471 121.85C273.297 122.027 273.066 122.177 272.777 122.301C272.489 122.426 272.136 122.488 271.721 122.488ZM271.888 121.501C272.323 121.501 272.689 121.415 272.987 121.245C273.288 121.074 273.514 120.854 273.666 120.584C273.821 120.314 273.899 120.03 273.899 119.732V118.727C273.852 118.783 273.75 118.834 273.592 118.88C273.437 118.924 273.257 118.963 273.052 118.997C272.85 119.028 272.653 119.056 272.461 119.08C272.271 119.102 272.118 119.121 272 119.136C271.714 119.174 271.448 119.234 271.199 119.318C270.954 119.398 270.756 119.521 270.603 119.686C270.455 119.847 270.38 120.067 270.38 120.346C270.38 120.728 270.521 121.017 270.804 121.212C271.089 121.405 271.451 121.501 271.888 121.501ZM277.708 112.787V122.32H276.609V112.787H277.708ZM283.832 119.397V115.171H284.93V122.32H283.832V121.11H283.757C283.59 121.473 283.329 121.782 282.975 122.036C282.622 122.287 282.175 122.413 281.635 122.413C281.188 122.413 280.791 122.315 280.443 122.12C280.096 121.921 279.823 121.623 279.624 121.226C279.426 120.826 279.326 120.322 279.326 119.713V115.171H280.425V119.639C280.425 120.16 280.571 120.576 280.862 120.886C281.157 121.197 281.533 121.352 281.989 121.352C282.262 121.352 282.539 121.282 282.822 121.142C283.107 121.003 283.346 120.789 283.539 120.5C283.734 120.211 283.832 119.844 283.832 119.397ZM289.547 122.469C288.858 122.469 288.263 122.317 287.764 122.013C287.267 121.706 286.884 121.277 286.614 120.728C286.347 120.176 286.214 119.533 286.214 118.801C286.214 118.069 286.347 117.423 286.614 116.865C286.884 116.303 287.26 115.866 287.741 115.552C288.225 115.236 288.789 115.078 289.435 115.078C289.807 115.078 290.175 115.14 290.538 115.264C290.901 115.388 291.232 115.59 291.529 115.869C291.827 116.145 292.065 116.511 292.242 116.967C292.418 117.423 292.507 117.985 292.507 118.652V119.118H286.996V118.168H291.39C291.39 117.765 291.309 117.405 291.148 117.088C290.989 116.772 290.763 116.522 290.468 116.339C290.177 116.156 289.832 116.064 289.435 116.064C288.997 116.064 288.619 116.173 288.299 116.39C287.983 116.604 287.739 116.883 287.568 117.228C287.398 117.572 287.312 117.942 287.312 118.336V118.969C287.312 119.509 287.405 119.966 287.592 120.342C287.781 120.714 288.043 120.998 288.378 121.194C288.713 121.386 289.103 121.482 289.547 121.482C289.835 121.482 290.096 121.442 290.329 121.361C290.564 121.277 290.768 121.153 290.938 120.989C291.109 120.821 291.241 120.613 291.334 120.365L292.395 120.663C292.283 121.023 292.096 121.339 291.832 121.613C291.568 121.882 291.242 122.093 290.855 122.246C290.467 122.394 290.031 122.469 289.547 122.469ZM140.357 138.32V128.787H141.455V132.306H141.548C141.629 132.182 141.741 132.024 141.883 131.832C142.029 131.636 142.237 131.462 142.507 131.31C142.78 131.155 143.149 131.078 143.615 131.078C144.217 131.078 144.747 131.228 145.207 131.529C145.666 131.83 146.024 132.257 146.282 132.809C146.539 133.361 146.668 134.013 146.668 134.764C146.668 135.521 146.539 136.177 146.282 136.733C146.024 137.285 145.667 137.713 145.211 138.017C144.755 138.318 144.229 138.469 143.633 138.469C143.174 138.469 142.806 138.393 142.53 138.241C142.254 138.086 142.042 137.91 141.893 137.715C141.744 137.516 141.629 137.352 141.548 137.222H141.418V138.32H140.357ZM141.436 134.745C141.436 135.285 141.516 135.762 141.674 136.174C141.832 136.584 142.063 136.905 142.367 137.138C142.671 137.367 143.044 137.482 143.484 137.482C143.944 137.482 144.327 137.361 144.634 137.119C144.944 136.874 145.177 136.545 145.332 136.132C145.491 135.717 145.57 135.254 145.57 134.745C145.57 134.243 145.492 133.79 145.337 133.386C145.185 132.98 144.954 132.659 144.643 132.423C144.336 132.184 143.95 132.064 143.484 132.064C143.038 132.064 142.662 132.178 142.358 132.404C142.054 132.627 141.824 132.941 141.669 133.344C141.514 133.745 141.436 134.212 141.436 134.745ZM150.953 138.469C150.264 138.469 149.67 138.317 149.17 138.013C148.674 137.706 148.29 137.277 148.02 136.728C147.754 136.176 147.62 135.533 147.62 134.801C147.62 134.069 147.754 133.423 148.02 132.865C148.29 132.303 148.666 131.866 149.147 131.552C149.631 131.236 150.196 131.078 150.841 131.078C151.213 131.078 151.581 131.14 151.944 131.264C152.307 131.388 152.638 131.59 152.936 131.869C153.234 132.145 153.471 132.511 153.648 132.967C153.825 133.423 153.913 133.985 153.913 134.652V135.118H148.402V134.168H152.796C152.796 133.765 152.715 133.405 152.554 133.088C152.396 132.772 152.169 132.522 151.874 132.339C151.583 132.156 151.238 132.064 150.841 132.064C150.404 132.064 150.025 132.173 149.705 132.39C149.389 132.604 149.145 132.883 148.975 133.228C148.804 133.572 148.719 133.942 148.719 134.336V134.969C148.719 135.509 148.812 135.966 148.998 136.342C149.187 136.714 149.449 136.998 149.784 137.194C150.12 137.386 150.509 137.482 150.953 137.482C151.241 137.482 151.502 137.442 151.735 137.361C151.971 137.277 152.174 137.153 152.344 136.989C152.515 136.821 152.647 136.613 152.74 136.365L153.801 136.663C153.69 137.023 153.502 137.339 153.238 137.613C152.974 137.882 152.649 138.093 152.261 138.246C151.873 138.394 151.437 138.469 150.953 138.469ZM158.3 131.171V132.102H154.595V131.171H158.3ZM155.675 129.458H156.773V136.272C156.773 136.582 156.818 136.815 156.908 136.97C157.001 137.122 157.119 137.225 157.262 137.277C157.408 137.327 157.562 137.352 157.723 137.352C157.844 137.352 157.943 137.346 158.021 137.333C158.098 137.318 158.16 137.305 158.207 137.296L158.43 138.283C158.356 138.311 158.252 138.339 158.119 138.367C157.985 138.398 157.816 138.413 157.611 138.413C157.301 138.413 156.997 138.346 156.699 138.213C156.404 138.08 156.159 137.876 155.963 137.603C155.771 137.33 155.675 136.986 155.675 136.57V129.458ZM161.179 138.32L159.001 131.171H160.155L161.7 136.644H161.775L163.301 131.171H164.474L165.982 136.626H166.057L167.602 131.171H168.757L166.578 138.32H165.498L163.934 132.828H163.823L162.259 138.32H161.179ZM172.57 138.469C171.881 138.469 171.287 138.317 170.787 138.013C170.291 137.706 169.908 137.277 169.638 136.728C169.371 136.176 169.237 135.533 169.237 134.801C169.237 134.069 169.371 133.423 169.638 132.865C169.908 132.303 170.283 131.866 170.764 131.552C171.248 131.236 171.813 131.078 172.458 131.078C172.831 131.078 173.198 131.14 173.561 131.264C173.924 131.388 174.255 131.59 174.553 131.869C174.851 132.145 175.088 132.511 175.265 132.967C175.442 133.423 175.53 133.985 175.53 134.652V135.118H170.019V134.168H174.413C174.413 133.765 174.332 133.405 174.171 133.088C174.013 132.772 173.786 132.522 173.492 132.339C173.2 132.156 172.855 132.064 172.458 132.064C172.021 132.064 171.642 132.173 171.323 132.39C171.006 132.604 170.762 132.883 170.592 133.228C170.421 133.572 170.336 133.942 170.336 134.336V134.969C170.336 135.509 170.429 135.966 170.615 136.342C170.804 136.714 171.067 136.998 171.402 137.194C171.737 137.386 172.126 137.482 172.57 137.482C172.859 137.482 173.119 137.442 173.352 137.361C173.588 137.277 173.791 137.153 173.962 136.989C174.132 136.821 174.264 136.613 174.357 136.365L175.419 136.663C175.307 137.023 175.119 137.339 174.855 137.613C174.592 137.882 174.266 138.093 173.878 138.246C173.49 138.394 173.054 138.469 172.57 138.469ZM179.806 138.469C179.117 138.469 178.522 138.317 178.023 138.013C177.526 137.706 177.143 137.277 176.873 136.728C176.606 136.176 176.473 135.533 176.473 134.801C176.473 134.069 176.606 133.423 176.873 132.865C177.143 132.303 177.519 131.866 178 131.552C178.484 131.236 179.048 131.078 179.694 131.078C180.066 131.078 180.434 131.14 180.797 131.264C181.16 131.388 181.49 131.59 181.788 131.869C182.086 132.145 182.324 132.511 182.501 132.967C182.677 133.423 182.766 133.985 182.766 134.652V135.118H177.255V134.168H181.649C181.649 133.765 181.568 133.405 181.407 133.088C181.248 132.772 181.022 132.522 180.727 132.339C180.435 132.156 180.091 132.064 179.694 132.064C179.256 132.064 178.878 132.173 178.558 132.39C178.242 132.604 177.998 132.883 177.827 133.228C177.657 133.572 177.571 133.942 177.571 134.336V134.969C177.571 135.509 177.664 135.966 177.851 136.342C178.04 136.714 178.302 136.998 178.637 137.194C178.972 137.386 179.362 137.482 179.806 137.482C180.094 137.482 180.355 137.442 180.587 137.361C180.823 137.277 181.027 137.153 181.197 136.989C181.368 136.821 181.5 136.613 181.593 136.365L182.654 136.663C182.542 137.023 182.355 137.339 182.091 137.613C181.827 137.882 181.501 138.093 181.113 138.246C180.726 138.394 180.29 138.469 179.806 138.469ZM185.142 134.019V138.32H184.044V131.171H185.105V132.288H185.198C185.365 131.925 185.62 131.633 185.961 131.413C186.303 131.189 186.743 131.078 187.283 131.078C187.767 131.078 188.191 131.177 188.554 131.375C188.917 131.571 189.199 131.869 189.401 132.269C189.603 132.666 189.704 133.169 189.704 133.777V138.32H188.605V133.852C188.605 133.29 188.459 132.852 188.168 132.539C187.876 132.223 187.476 132.064 186.967 132.064C186.616 132.064 186.303 132.14 186.026 132.292C185.753 132.444 185.538 132.666 185.379 132.958C185.221 133.25 185.142 133.603 185.142 134.019ZM194.611 138.32V131.171H195.672V132.25H195.746C195.877 131.897 196.113 131.61 196.454 131.389C196.795 131.169 197.18 131.059 197.608 131.059C197.689 131.059 197.79 131.06 197.911 131.064C198.032 131.067 198.123 131.071 198.185 131.078V132.195C198.148 132.185 198.063 132.171 197.929 132.153C197.799 132.131 197.661 132.12 197.515 132.12C197.168 132.12 196.857 132.193 196.584 132.339C196.314 132.482 196.1 132.68 195.942 132.935C195.787 133.186 195.709 133.473 195.709 133.796V138.32H194.611ZM201.781 138.469C201.136 138.469 200.569 138.315 200.082 138.008C199.598 137.701 199.22 137.271 198.947 136.719C198.677 136.166 198.542 135.521 198.542 134.783C198.542 134.038 198.677 133.388 198.947 132.832C199.22 132.277 199.598 131.846 200.082 131.538C200.569 131.231 201.136 131.078 201.781 131.078C202.427 131.078 202.991 131.231 203.475 131.538C203.963 131.846 204.341 132.277 204.611 132.832C204.884 133.388 205.021 134.038 205.021 134.783C205.021 135.521 204.884 136.166 204.611 136.719C204.341 137.271 203.963 137.701 203.475 138.008C202.991 138.315 202.427 138.469 201.781 138.469ZM201.781 137.482C202.271 137.482 202.675 137.357 202.991 137.105C203.308 136.854 203.542 136.523 203.694 136.114C203.846 135.704 203.922 135.26 203.922 134.783C203.922 134.305 203.846 133.859 203.694 133.447C203.542 133.034 203.308 132.7 202.991 132.446C202.675 132.192 202.271 132.064 201.781 132.064C201.291 132.064 200.887 132.192 200.571 132.446C200.254 132.7 200.02 133.034 199.868 133.447C199.716 133.859 199.64 134.305 199.64 134.783C199.64 135.26 199.716 135.704 199.868 136.114C200.02 136.523 200.254 136.854 200.571 137.105C200.887 137.357 201.291 137.482 201.781 137.482ZM207.403 128.787V138.32H206.304V128.787H207.403ZM210.12 128.787V138.32H209.022V128.787H210.12ZM216.803 132.772L215.816 133.051C215.754 132.887 215.662 132.727 215.541 132.572C215.424 132.413 215.262 132.283 215.057 132.181C214.853 132.078 214.59 132.027 214.271 132.027C213.833 132.027 213.469 132.128 213.177 132.33C212.888 132.528 212.744 132.781 212.744 133.088C212.744 133.361 212.843 133.577 213.042 133.735C213.241 133.894 213.551 134.025 213.973 134.131L215.034 134.392C215.673 134.547 216.15 134.784 216.463 135.104C216.776 135.42 216.933 135.828 216.933 136.328C216.933 136.737 216.815 137.104 216.579 137.426C216.347 137.749 216.021 138.003 215.602 138.19C215.183 138.376 214.696 138.469 214.14 138.469C213.411 138.469 212.808 138.311 212.33 137.994C211.852 137.678 211.549 137.215 211.422 136.607L212.465 136.346C212.564 136.731 212.752 137.02 213.028 137.212C213.307 137.405 213.672 137.501 214.122 137.501C214.634 137.501 215.04 137.392 215.341 137.175C215.645 136.955 215.797 136.691 215.797 136.384C215.797 136.135 215.711 135.928 215.537 135.76C215.363 135.589 215.096 135.462 214.736 135.378L213.545 135.099C212.89 134.944 212.409 134.703 212.102 134.378C211.798 134.049 211.646 133.638 211.646 133.144C211.646 132.741 211.759 132.384 211.985 132.074C212.215 131.763 212.527 131.52 212.921 131.343C213.318 131.166 213.768 131.078 214.271 131.078C214.978 131.078 215.534 131.233 215.937 131.543C216.344 131.853 216.632 132.263 216.803 132.772ZM218.994 138.394C218.764 138.394 218.567 138.312 218.403 138.148C218.238 137.983 218.156 137.786 218.156 137.557C218.156 137.327 218.238 137.13 218.403 136.966C218.567 136.801 218.764 136.719 218.994 136.719C219.224 136.719 219.421 136.801 219.585 136.966C219.75 137.13 219.832 137.327 219.832 137.557C219.832 137.709 219.793 137.848 219.716 137.976C219.641 138.103 219.54 138.205 219.413 138.283C219.289 138.357 219.149 138.394 218.994 138.394Z" fill="#4A4E74"/>
<g filter="url(#filter2_d_2_32)">
<rect x="54.56" y="164.4" width="35.84" height="35.84" rx="3.81277" fill="#59E391"/>
</g>
<path d="M72.3931 176.355H74.2255V189.8H71.796V179.258C71.4322 179.423 71.0754 179.55 70.7254 179.639C70.3753 179.729 70.0253 179.773 69.6753 179.773V177.447C70.142 177.399 70.595 177.292 71.0342 177.128C71.4734 176.956 71.9264 176.699 72.3931 176.355Z" fill="#2B283A"/>
<g filter="url(#filter3_d_2_32)">
<rect x="54.56" y="218.8" width="35.84" height="35.84" rx="3.81277" fill="white"/>
</g>
<path d="M72.5205 244.488C71.8136 244.488 71.1307 244.392 70.4719 244.2C69.813 244.008 69.2228 243.723 68.7012 243.346C68.1796 242.968 67.7644 242.501 67.4556 241.946C67.1536 241.383 67.0026 240.734 67.0026 240H69.5556C69.5831 240.467 69.7238 240.871 69.9777 241.215C70.2317 241.551 70.5748 241.812 71.0072 241.997C71.4464 242.175 71.9508 242.265 72.5205 242.265C73.3577 242.265 74.0132 242.072 74.4867 241.688C74.9602 241.304 75.197 240.817 75.197 240.226C75.197 239.842 75.1009 239.513 74.9088 239.238C74.7166 238.957 74.4215 238.744 74.0234 238.6C73.6254 238.449 73.1175 238.373 72.4999 238.373H70.7292V236.459H72.2322C73.0146 236.459 73.6288 236.29 74.0749 235.954C74.521 235.618 74.7441 235.161 74.7441 234.585C74.7441 234.07 74.5519 233.641 74.1676 233.298C73.7832 232.948 73.2068 232.773 72.4381 232.773C71.8136 232.773 71.2542 232.9 70.7601 233.154C70.2728 233.408 69.9606 233.851 69.8233 234.482H67.2703C67.3664 233.569 67.6409 232.825 68.0938 232.248C68.5537 231.672 69.1473 231.25 69.8748 230.982C70.6023 230.707 71.4224 230.57 72.3352 230.57C73.3028 230.57 74.1641 230.728 74.9191 231.044C75.674 231.359 76.2676 231.799 76.7 232.361C77.1392 232.917 77.3589 233.562 77.3589 234.297C77.3589 234.976 77.1736 235.57 76.803 236.078C76.4324 236.579 75.8833 236.953 75.1558 237.2C75.9657 237.474 76.6142 237.883 77.1015 238.425C77.5888 238.967 77.8324 239.643 77.8324 240.453C77.8324 241.242 77.6094 241.942 77.1633 242.553C76.724 243.157 76.1064 243.63 75.3103 243.974C74.5142 244.317 73.5842 244.488 72.5205 244.488Z" fill="#2B283A"/>
<g filter="url(#filter4_d_2_32)">
<rect x="108.32" y="164.4" width="35.84" height="35.84" rx="3.81277" fill="white"/>
</g>
<path d="M121.242 189.8V187.515C121.242 186.767 121.356 186.132 121.582 185.61C121.809 185.089 122.145 184.649 122.591 184.292C123.044 183.929 123.61 183.616 124.29 183.356L127.028 182.306C127.625 182.065 128.064 181.77 128.346 181.42C128.634 181.07 128.778 180.638 128.778 180.123C128.778 179.608 128.589 179.176 128.212 178.826C127.841 178.469 127.309 178.291 126.616 178.291C125.95 178.291 125.391 178.459 124.938 178.795C124.492 179.125 124.235 179.608 124.166 180.247H121.469C121.489 179.334 121.726 178.576 122.179 177.972C122.632 177.368 123.239 176.918 124.001 176.623C124.763 176.321 125.621 176.17 126.575 176.17C127.474 176.17 128.287 176.342 129.015 176.685C129.742 177.021 130.319 177.495 130.744 178.105C131.177 178.709 131.393 179.416 131.393 180.226C131.393 180.912 131.266 181.516 131.012 182.038C130.765 182.56 130.387 183.016 129.879 183.407C129.372 183.798 128.73 184.145 127.954 184.447L125.195 185.517C124.66 185.723 124.272 185.953 124.032 186.207C123.792 186.454 123.672 186.78 123.672 187.185V187.576H131.31V189.8H121.242Z" fill="#2B283A"/>
<g filter="url(#filter5_d_2_32)">
<rect x="108.32" y="218.8" width="35.84" height="35.84" rx="3.81277" fill="white"/>
</g>
<path d="M126.28 244.488C125.574 244.488 124.891 244.392 124.232 244.2C123.573 244.008 122.983 243.723 122.461 243.346C121.94 242.968 121.524 242.501 121.216 241.946C120.914 241.383 120.763 240.734 120.763 240H123.316C123.343 240.467 123.484 240.871 123.738 241.215C123.992 241.551 124.335 241.812 124.767 241.997C125.206 242.175 125.711 242.265 126.28 242.265C127.118 242.265 127.773 242.072 128.247 241.688C128.72 241.304 128.957 240.817 128.957 240.226C128.957 239.842 128.861 239.513 128.669 239.238C128.477 238.957 128.182 238.744 127.783 238.6C127.385 238.449 126.878 238.373 126.26 238.373H124.489V236.459H125.992C126.775 236.459 127.389 236.29 127.835 235.954C128.281 235.618 128.504 235.161 128.504 234.585C128.504 234.07 128.312 233.641 127.928 233.298C127.543 232.948 126.967 232.773 126.198 232.773C125.574 232.773 125.014 232.9 124.52 233.154C124.033 233.408 123.721 233.851 123.583 234.482H121.03C121.126 233.569 121.401 232.825 121.854 232.248C122.314 231.672 122.907 231.25 123.635 230.982C124.362 230.707 125.182 230.57 126.095 230.57C127.063 230.57 127.924 230.728 128.679 231.044C129.434 231.359 130.028 231.799 130.46 232.361C130.899 232.917 131.119 233.562 131.119 234.297C131.119 234.976 130.934 235.57 130.563 236.078C130.192 236.579 129.643 236.953 128.916 237.2C129.726 237.474 130.374 237.883 130.861 238.425C131.349 238.967 131.592 239.643 131.592 240.453C131.592 241.242 131.369 241.942 130.923 242.553C130.484 243.157 129.866 243.63 129.07 243.974C128.274 244.317 127.344 244.488 126.28 244.488Z" fill="#2B283A"/>
<g filter="url(#filter6_d_2_32)">
<rect x="162.08" y="164.4" width="35.84" height="35.84" rx="3.81277" fill="#59E391"/>
</g>
<path d="M179.913 176.355H181.745V189.8H179.316V179.258C178.952 179.423 178.595 179.55 178.245 179.639C177.895 179.729 177.545 179.773 177.195 179.773V177.447C177.662 177.399 178.115 177.292 178.554 177.128C178.993 176.956 179.446 176.699 179.913 176.355Z" fill="#2B283A"/>
<g filter="url(#filter7_d_2_32)">
<rect x="162.08" y="218.8" width="35.84" height="35.84" rx="3.81277" fill="white"/>
</g>
<path d="M180.123 244.488C179.162 244.488 178.315 244.324 177.58 243.994C176.846 243.658 176.266 243.171 175.841 242.532C175.422 241.894 175.202 241.119 175.182 240.206H177.653C177.653 240.892 177.889 241.407 178.363 241.75C178.836 242.093 179.423 242.265 180.123 242.265C180.871 242.265 181.482 242.024 181.956 241.544C182.436 241.057 182.676 240.46 182.676 239.753C182.676 238.38 181.757 237.694 179.917 237.694H175.841L176.458 230.838H184.467V233.061H178.414L178.888 232.361L178.497 236.335L178.291 236.109C178.62 236.033 179.011 235.978 179.464 235.944C179.917 235.903 180.309 235.882 180.638 235.882C182.017 235.882 183.115 236.218 183.932 236.891C184.756 237.557 185.167 238.511 185.167 239.753C185.167 240.638 184.958 241.441 184.54 242.162C184.121 242.875 183.534 243.442 182.779 243.86C182.024 244.279 181.139 244.488 180.123 244.488Z" fill="#2B283A"/>
<g filter="url(#filter8_d_2_32)">
<rect x="215.84" y="164.4" width="35.84" height="35.84" rx="3.81277" fill="white"/>
</g>
<path d="M234.137 190.088C233.018 190.088 232.033 189.797 231.182 189.213C230.331 188.63 229.665 187.834 229.185 186.825C228.711 185.809 228.475 184.653 228.475 183.356C228.475 181.825 228.715 180.525 229.195 179.454C229.676 178.383 230.348 177.57 231.213 177.014C232.085 176.451 233.1 176.17 234.26 176.17C235.145 176.17 235.928 176.335 236.607 176.664C237.287 176.987 237.822 177.443 238.213 178.033C238.604 178.624 238.817 179.313 238.851 180.103H236.257C236.182 179.567 235.99 179.145 235.681 178.836C235.372 178.528 234.926 178.373 234.342 178.373C233.286 178.373 232.448 178.84 231.831 179.773C231.213 180.7 230.904 181.962 230.904 183.562C230.904 183.767 230.908 183.99 230.914 184.231C230.928 184.471 230.952 184.701 230.986 184.92C231.096 184.076 231.336 183.414 231.707 182.934C232.085 182.453 232.537 182.113 233.066 181.914C233.594 181.709 234.15 181.606 234.734 181.606C235.571 181.606 236.309 181.787 236.947 182.151C237.585 182.515 238.086 183.016 238.45 183.654C238.814 184.292 238.996 185.023 238.996 185.847C238.996 186.691 238.79 187.432 238.378 188.071C237.973 188.709 237.403 189.206 236.669 189.563C235.942 189.913 235.097 190.088 234.137 190.088ZM234.137 187.865C234.782 187.865 235.334 187.672 235.794 187.288C236.254 186.897 236.484 186.382 236.484 185.744C236.484 185.078 236.254 184.557 235.794 184.179C235.334 183.795 234.782 183.603 234.137 183.603C233.711 183.603 233.323 183.692 232.973 183.87C232.63 184.049 232.352 184.299 232.139 184.622C231.934 184.944 231.831 185.318 231.831 185.744C231.831 186.382 232.054 186.897 232.5 187.288C232.953 187.672 233.498 187.865 234.137 187.865Z" fill="#2B283A"/>
<g filter="url(#filter9_d_2_32)">
<rect x="215.84" y="218.8" width="35.84" height="35.84" rx="3.81277" fill="white"/>
</g>
<path d="M234.137 244.488C233.018 244.488 232.033 244.197 231.182 243.613C230.331 243.03 229.665 242.234 229.185 241.225C228.711 240.209 228.475 239.053 228.475 237.756C228.475 236.225 228.715 234.925 229.195 233.854C229.676 232.783 230.348 231.97 231.213 231.414C232.085 230.852 233.1 230.57 234.26 230.57C235.145 230.57 235.928 230.735 236.607 231.064C237.287 231.387 237.822 231.843 238.213 232.433C238.604 233.024 238.817 233.713 238.851 234.503H236.257C236.182 233.967 235.99 233.545 235.681 233.236C235.372 232.928 234.926 232.773 234.342 232.773C233.286 232.773 232.448 233.24 231.831 234.173C231.213 235.1 230.904 236.362 230.904 237.962C230.904 238.167 230.908 238.39 230.914 238.631C230.928 238.871 230.952 239.101 230.986 239.32C231.096 238.476 231.336 237.814 231.707 237.334C232.085 236.853 232.537 236.513 233.066 236.314C233.594 236.109 234.15 236.006 234.734 236.006C235.571 236.006 236.309 236.187 236.947 236.551C237.585 236.915 238.086 237.416 238.45 238.054C238.814 238.692 238.996 239.423 238.996 240.247C238.996 241.091 238.79 241.832 238.378 242.471C237.973 243.109 237.403 243.606 236.669 243.963C235.942 244.313 235.097 244.488 234.137 244.488ZM234.137 242.265C234.782 242.265 235.334 242.072 235.794 241.688C236.254 241.297 236.484 240.782 236.484 240.144C236.484 239.478 236.254 238.957 235.794 238.579C235.334 238.195 234.782 238.003 234.137 238.003C233.711 238.003 233.323 238.092 232.973 238.27C232.63 238.449 232.352 238.699 232.139 239.022C231.934 239.344 231.831 239.718 231.831 240.144C231.831 240.782 232.054 241.297 232.5 241.688C232.953 242.072 233.498 242.265 234.137 242.265Z" fill="#2B283A"/>
<g filter="url(#filter10_d_2_32)">
<rect x="269.6" y="164.4" width="35.84" height="35.84" rx="3.81277" fill="white"/>
</g>
<path d="M287.643 190.088C286.682 190.088 285.835 189.924 285.1 189.594C284.366 189.258 283.786 188.771 283.361 188.132C282.942 187.494 282.722 186.719 282.702 185.806H285.173C285.173 186.492 285.409 187.007 285.883 187.35C286.356 187.693 286.943 187.865 287.643 187.865C288.391 187.865 289.002 187.624 289.476 187.144C289.956 186.657 290.196 186.06 290.196 185.353C290.196 183.98 289.277 183.294 287.437 183.294H283.361L283.978 176.438H291.987V178.661H285.934L286.408 177.961L286.017 181.935L285.811 181.709C286.14 181.633 286.531 181.578 286.984 181.544C287.437 181.503 287.829 181.482 288.158 181.482C289.537 181.482 290.635 181.818 291.452 182.491C292.276 183.157 292.687 184.111 292.687 185.353C292.687 186.238 292.478 187.041 292.06 187.762C291.641 188.475 291.054 189.042 290.299 189.46C289.544 189.879 288.659 190.088 287.643 190.088Z" fill="#2B283A"/>
<g filter="url(#filter11_d_2_32)">
<rect x="269.6" y="218.8" width="35.84" height="35.84" rx="3.81277" fill="#59E391"/>
</g>
<path d="M287.433 230.755H289.265V244.2H286.836V233.658C286.472 233.823 286.115 233.95 285.765 234.039C285.415 234.129 285.065 234.173 284.715 234.173V231.847C285.182 231.799 285.635 231.692 286.074 231.528C286.513 231.356 286.966 231.099 287.433 230.755Z" fill="#2B283A"/>
</g>
<defs>
<filter id="filter0_d_2_32" x="16" y="30" width="328" height="328" filterUnits="userSpaceOnUse" color-interpolation-filters="sRGB">
<feFlood flood-opacity="0" result="BackgroundImageFix"/>
<feColorMatrix in="SourceAlpha" type="matrix" values="0 0 0 0 0 0 0 0 0 0 0 0 0 0 0 0 0 0 127 0" result="hardAlpha"/>
<feOffset dy="4"/>
<feGaussianBlur stdDeviation="2"/>
<feComposite in2="hardAlpha" operator="out"/>
<feColorMatrix type="matrix" values="0 0 0 0 0 0 0 0 0 0 0 0 0 0 0 0 0 0 0.25 0"/>
<feBlend mode="normal" in2="BackgroundImageFix" result="effect1_dropShadow_2_32"/>
<feBlend mode="normal" in="SourceGraphic" in2="effect1_dropShadow_2_32" result="shape"/>
</filter>
<filter id="filter1_d_2_32" x="126.24" y="275.76" width="107.52" height="51.2" filterUnits="userSpaceOnUse" color-interpolation-filters="sRGB">
<feFlood flood-opacity="0" result="BackgroundImageFix"/>
<feColorMatrix in="SourceAlpha" type="matrix" values="0 0 0 0 0 0 0 0 0 0 0 0 0 0 0 0 0 0 127 0" result="hardAlpha"/>
<feOffset dy="3.2"/>
<feGaussianBlur stdDeviation="3.84"/>
<feComposite in2="hardAlpha" operator="out"/>
<feColorMatrix type="matrix" values="0 0 0 0 0 0 0 0 0 0 0 0 0 0 0 0 0 0 0.18 0"/>
<feBlend mode="normal" in2="BackgroundImageFix" result="effect1_dropShadow_2_32"/>
<feBlend mode="normal" in="SourceGraphic" in2="effect1_dropShadow_2_32" result="shape"/>
</filter>
<filter id="filter2_d_2_32" x="52.56" y="164.4" width="39.84" height="39.84" filterUnits="userSpaceOnUse" color-interpolation-filters="sRGB">
<feFlood flood-opacity="0" result="BackgroundImageFix"/>
<feColorMatrix in="SourceAlpha" type="matrix" values="0 0 0 0 0 0 0 0 0 0 0 0 0 0 0 0 0 0 127 0" result="hardAlpha"/>
<feOffset dy="2"/>
<feGaussianBlur stdDeviation="1"/>
<feComposite in2="hardAlpha" operator="out"/>
<feColorMatrix type="matrix" values="0 0 0 0 0 0 0 0 0 0 0 0 0 0 0 0 0 0 0.15 0"/>
<feBlend mode="normal" in2="BackgroundImageFix" result="effect1_dropShadow_2_32"/>
<feBlend mode="normal" in="SourceGraphic" in2="effect1_dropShadow_2_32" result="shape"/>
</filter>
<filter id="filter3_d_2_32" x="52.56" y="218.8" width="39.84" height="39.84" filterUnits="userSpaceOnUse" color-interpolation-filters="sRGB">
<feFlood flood-opacity="0" result="BackgroundImageFix"/>
<feColorMatrix in="SourceAlpha" type="matrix" values="0 0 0 0 0 0 0 0 0 0 0 0 0 0 0 0 0 0 127 0" result="hardAlpha"/>
<feOffset dy="2"/>
<feGaussianBlur stdDeviation="1"/>
<feComposite in2="hardAlpha" operator="out"/>
<feColorMatrix type="matrix" values="0 0 0 0 0 0 0 0 0 0 0 0 0 0 0 0 0 0 0.15 0"/>
<feBlend mode="normal" in2="BackgroundImageFix" result="effect1_dropShadow_2_32"/>
<feBlend mode="normal" in="SourceGraphic" in2="effect1_dropShadow_2_32" result="shape"/>
</filter>
<filter id="filter4_d_2_32" x="106.32" y="164.4" width="39.84" height="39.84" filterUnits="userSpaceOnUse" color-interpolation-filters="sRGB">
<feFlood flood-opacity="0" result="BackgroundImageFix"/>
<feColorMatrix in="SourceAlpha" type="matrix" values="0 0 0 0 0 0 0 0 0 0 0 0 0 0 0 0 0 0 127 0" result="hardAlpha"/>
<feOffset dy="2"/>
<feGaussianBlur stdDeviation="1"/>
<feComposite in2="hardAlpha" operator="out"/>
<feColorMatrix type="matrix" values="0 0 0 0 0 0 0 0 0 0 0 0 0 0 0 0 0 0 0.15 0"/>
<feBlend mode="normal" in2="BackgroundImageFix" result="effect1_dropShadow_2_32"/>
<feBlend mode="normal" in="SourceGraphic" in2="effect1_dropShadow_2_32" result="shape"/>
</filter>
<filter id="filter5_d_2_32" x="106.32" y="218.8" width="39.84" height="39.84" filterUnits="userSpaceOnUse" color-interpolation-filters="sRGB">
<feFlood flood-opacity="0" result="BackgroundImageFix"/>
<feColorMatrix in="SourceAlpha" type="matrix" values="0 0 0 0 0 0 0 0 0 0 0 0 0 0 0 0 0 0 127 0" result="hardAlpha"/>
<feOffset dy="2"/>
<feGaussianBlur stdDeviation="1"/>
<feComposite in2="hardAlpha" operator="out"/>
<feColorMatrix type="matrix" values="0 0 0 0 0 0 0 0 0 0 0 0 0 0 0 0 0 0 0.15 0"/>
<feBlend mode="normal" in2="BackgroundImageFix" result="effect1_dropShadow_2_32"/>
<feBlend mode="normal" in="SourceGraphic" in2="effect1_dropShadow_2_32" result="shape"/>
</filter>
<filter id="filter6_d_2_32" x="160.08" y="164.4" width="39.84" height="39.84" filterUnits="userSpaceOnUse" color-interpolation-filters="sRGB">
<feFlood flood-opacity="0" result="BackgroundImageFix"/>
<feColorMatrix in="SourceAlpha" type="matrix" values="0 0 0 0 0 0 0 0 0 0 0 0 0 0 0 0 0 0 127 0" result="hardAlpha"/>
<feOffset dy="2"/>
<feGaussianBlur stdDeviation="1"/>
<feComposite in2="hardAlpha" operator="out"/>
<feColorMatrix type="matrix" values="0 0 0 0 0 0 0 0 0 0 0 0 0 0 0 0 0 0 0.15 0"/>
<feBlend mode="normal" in2="BackgroundImageFix" result="effect1_dropShadow_2_32"/>
<feBlend mode="normal" in="SourceGraphic" in2="effect1_dropShadow_2_32" result="shape"/>
</filter>
<filter id="filter7_d_2_32" x="160.08" y="218.8" width="39.84" height="39.84" filterUnits="userSpaceOnUse" color-interpolation-filters="sRGB">
<feFlood flood-opacity="0" result="BackgroundImageFix"/>
<feColorMatrix in="SourceAlpha" type="matrix" values="0 0 0 0 0 0 0 0 0 0 0 0 0 0 0 0 0 0 127 0" result="hardAlpha"/>
<feOffset dy="2"/>
<feGaussianBlur stdDeviation="1"/>
<feComposite in2="hardAlpha" operator="out"/>
<feColorMatrix type="matrix" values="0 0 0 0 0 0 0 0 0 0 0 0 0 0 0 0 0 0 0.15 0"/>
<feBlend mode="normal" in2="BackgroundImageFix" result="effect1_dropShadow_2_32"/>
<feBlend mode="normal" in="SourceGraphic" in2="effect1_dropShadow_2_32" result="shape"/>
</filter>
<filter id="filter8_d_2_32" x="213.84" y="164.4" width="39.84" height="39.84" filterUnits="userSpaceOnUse" color-interpolation-filters="sRGB">
<feFlood flood-opacity="0" result="BackgroundImageFix"/>
<feColorMatrix in="SourceAlpha" type="matrix" values="0 0 0 0 0 0 0 0 0 0 0 0 0 0 0 0 0 0 127 0" result="hardAlpha"/>
<feOffset dy="2"/>
<feGaussianBlur stdDeviation="1"/>
<feComposite in2="hardAlpha" operator="out"/>
<feColorMatrix type="matrix" values="0 0 0 0 0 0 0 0 0 0 0 0 0 0 0 0 0 0 0.15 0"/>
<feBlend mode="normal" in2="BackgroundImageFix" result="effect1_dropShadow_2_32"/>
<feBlend mode="normal" in="SourceGraphic" in2="effect1_dropShadow_2_32" result="shape"/>
</filter>
<filter id="filter9_d_2_32" x="213.84" y="218.8" width="39.84" height="39.84" filterUnits="userSpaceOnUse" color-interpolation-filters="sRGB">
<feFlood flood-opacity="0" result="BackgroundImageFix"/>
<feColorMatrix in="SourceAlpha" type="matrix" values="0 0 0 0 0 0 0 0 0 0 0 0 0 0 0 0 0 0 127 0" result="hardAlpha"/>
<feOffset dy="2"/>
<feGaussianBlur stdDeviation="1"/>
<feComposite in2="hardAlpha" operator="out"/>
<feColorMatrix type="matrix" values="0 0 0 0 0 0 0 0 0 0 0 0 0 0 0 0 0 0 0.15 0"/>
<feBlend mode="normal" in2="BackgroundImageFix" result="effect1_dropShadow_2_32"/>
<feBlend mode="normal" in="SourceGraphic" in2="effect1_dropShadow_2_32" result="shape"/>
</filter>
<filter id="filter10_d_2_32" x="267.6" y="164.4" width="39.84" height="39.84" filterUnits="userSpaceOnUse" color-interpolation-filters="sRGB">
<feFlood flood-opacity="0" result="BackgroundImageFix"/>
<feColorMatrix in="SourceAlpha" type="matrix" values="0 0 0 0 0 0 0 0 0 0 0 0 0 0 0 0 0 0 127 0" result="hardAlpha"/>
<feOffset dy="2"/>
<feGaussianBlur stdDeviation="1"/>
<feComposite in2="hardAlpha" operator="out"/>
<feColorMatrix type="matrix" values="0 0 0 0 0 0 0 0 0 0 0 0 0 0 0 0 0 0 0.15 0"/>
<feBlend mode="normal" in2="BackgroundImageFix" result="effect1_dropShadow_2_32"/>
<feBlend mode="normal" in="SourceGraphic" in2="effect1_dropShadow_2_32" result="shape"/>
</filter>
<filter id="filter11_d_2_32" x="267.6" y="218.8" width="39.84" height="39.84" filterUnits="userSpaceOnUse" color-interpolation-filters="sRGB">
<feFlood flood-opacity="0" result="BackgroundImageFix"/>
<feColorMatrix in="SourceAlpha" type="matrix" values="0 0 0 0 0 0 0 0 0 0 0 0 0 0 0 0 0 0 127 0" result="hardAlpha"/>
<feOffset dy="2"/>
<feGaussianBlur stdDeviation="1"/>
<feComposite in2="hardAlpha" operator="out"/>
<feColorMatrix type="matrix" values="0 0 0 0 0 0 0 0 0 0 0 0 0 0 0 0 0 0 0.15 0"/>
<feBlend mode="normal" in2="BackgroundImageFix" result="effect1_dropShadow_2_32"/>
<feBlend mode="normal" in="SourceGraphic" in2="effect1_dropShadow_2_32" result="shape"/>
</filter>
</defs>
</svg>
